<?xml version="1.0" encoding="UTF-8" standalone="no"?><svg xmlns="http://www.w3.org/2000/svg" xmlns:xlink="http://www.w3.org/1999/xlink" height="1018" version="1.1" width="1676"><defs/><g><g transform="translate(-30,2) scale(1,1)"><path d="M 40 8 L 1696 8 L 1696 992 L 40 992 L 40 8" fill="none" stroke="#000000" stroke-miterlimit="10"/></g><g transform="translate(-30,2) scale(1,1)"><path d="M 40 8 L 40 30 L 247.521484375 30 L 258.521484375 19 L 258.521484375 8 L 40 8" fill="#ffffff" stroke="none"/></g><g transform="translate(-30,2) scale(1,1)"><path d="M 40 8 L 40 30 L 247.521484375 30 L 258.521484375 19 L 258.521484375 8 L 40 8 L 40 8" fill="none" stroke="#000000" stroke-miterlimit="10"/></g><g transform="translate(-30,2) scale(1,1)"><g><path fill="none" stroke="none"/><text fill="#000000" font-family="Arial" font-size="13px" font-style="normal" font-weight="normal" stroke="none" text-decoration="none" x="110.97900390625" y="25.5">End Shopping Session</text></g></g><g transform="translate(-30,2) scale(1,1)"><g><path fill="none" stroke="none"/><text fill="#000000" font-family="Arial" font-size="13px" font-style="normal" font-weight="bold" stroke="none" text-decoration="none" x="45" y="25.5">interaction</text></g></g><g transform="translate(-30,2) scale(1,1)"><path d="M 126.0604110440341 47.3 C 126.0604110440341 43.82060576 128.9388127662159 41 132.489501953125 41 C 136.0401911400341 41 138.91859286221592 43.82060576 138.91859286221592 47.3 C 138.91859286221592 50.779394239999995 136.0401911400341 53.6 132.489501953125 53.6 C 128.9388127662159 53.6 126.0604110440341 50.779394239999995 126.0604110440341 47.3 Z" fill="#ffffff" stroke="none"/></g><g transform="translate(-30,2) scale(1,1)"><path d="M 126.0604110440341 47.3 C 126.0604110440341 43.82060576 128.9388127662159 41 132.489501953125 41 C 136.0401911400341 41 138.91859286221592 43.82060576 138.91859286221592 47.3 C 138.91859286221592 50.779394239999995 136.0401911400341 53.6 132.489501953125 53.6 C 128.9388127662159 53.6 126.0604110440341 50.779394239999995 126.0604110440341 47.3 Z" fill="none" stroke="#000000" stroke-miterlimit="10"/></g><g transform="translate(-30,2) scale(1,1)"><path d="M 132.489501953125 53.6 L 132.489501953125 66.4" fill="none" stroke="#000000" stroke-miterlimit="10"/></g><g transform="translate(-30,2) scale(1,1)"><path d="M 125.68222922585228 58.4 L 139.29677468039773 58.4" fill="none" stroke="#000000" stroke-miterlimit="10"/></g><g transform="translate(-30,2) scale(1,1)"><path d="M 132.489501953125 66.4 L 123.03495649857955 79" fill="none" stroke="#000000" stroke-miterlimit="10"/></g><g transform="translate(-30,2) scale(1,1)"><path d="M 132.489501953125 66.4 L 141.94404740767047 79" fill="none" stroke="#000000" stroke-miterlimit="10"/></g><g transform="translate(-30,2) scale(1,1)"><g><path fill="none" stroke="none"/><text fill="#000000" font-family="Arial" font-size="13px" font-style="normal" font-weight="bold" stroke="none" text-decoration="none" x="80.819580078125" y="99.5">Lifeline1: Sensors</text></g></g><g transform="translate(-30,2) scale(1,1)"><path d="M 133.5 105 L 133.5 990" fill="none" stroke="#000000" stroke-dasharray="3" stroke-miterlimit="10"/></g><g transform="translate(-30,2) scale(1,1)"><path d="M 342.1858993252841 47.3 C 342.1858993252841 43.82060576 345.0643010474659 41 348.614990234375 41 C 352.1656794212841 41 355.044081143466 43.82060576 355.044081143466 47.3 C 355.044081143466 50.779394239999995 352.1656794212841 53.6 348.614990234375 53.6 C 345.0643010474659 53.6 342.1858993252841 50.779394239999995 342.1858993252841 47.3 Z" fill="#ffffff" stroke="none"/></g><g transform="translate(-30,2) scale(1,1)"><path d="M 342.1858993252841 47.3 C 342.1858993252841 43.82060576 345.0643010474659 41 348.614990234375 41 C 352.1656794212841 41 355.044081143466 43.82060576 355.044081143466 47.3 C 355.044081143466 50.779394239999995 352.1656794212841 53.6 348.614990234375 53.6 C 345.0643010474659 53.6 342.1858993252841 50.779394239999995 342.1858993252841 47.3 Z" fill="none" stroke="#000000" stroke-miterlimit="10"/></g><g transform="translate(-30,2) scale(1,1)"><path d="M 348.614990234375 53.6 L 348.614990234375 66.4" fill="none" stroke="#000000" stroke-miterlimit="10"/></g><g transform="translate(-30,2) scale(1,1)"><path d="M 341.80771750710227 58.4 L 355.4222629616478 58.4" fill="none" stroke="#000000" stroke-miterlimit="10"/></g><g transform="translate(-30,2) scale(1,1)"><path d="M 348.614990234375 66.4 L 339.16044477982956 79" fill="none" stroke="#000000" stroke-miterlimit="10"/></g><g transform="translate(-30,2) scale(1,1)"><path d="M 348.614990234375 66.4 L 358.0695356889205 79" fill="none" stroke="#000000" stroke-miterlimit="10"/></g><g transform="translate(-30,2) scale(1,1)"><g><path fill="none" stroke="none"/><text fill="#000000" font-family="Arial" font-size="13px" font-style="normal" font-weight="bold" stroke="none" text-decoration="none" x="268.037841796875" y="99.5">Lifeline2: Mobile Application</text></g></g><g transform="translate(-30,2) scale(1,1)"><path d="M 349.5 105 L 349.5 942" fill="none" stroke="#000000" stroke-dasharray="3" stroke-miterlimit="10"/></g><g transform="translate(-30,2) scale(1,1)"><rect fill="#C0C0C0" height="39" opacity="0.2" stroke="none" width="216.919921875" x="471" y="47"/></g><g transform="translate(-30,2) scale(1,1)"><rect fill="#ffffff" height="39" stroke="none" width="216.919921875" x="464" y="40"/></g><g transform="translate(-30,2) scale(1,1)"><path d="M 464 40 L 680.919921875 40 L 680.919921875 79 L 464 79 L 464 40 Z Z" fill="none" stroke="#000000" stroke-miterlimit="10"/></g><g transform="translate(-30,2) scale(1,1)"><g><path fill="none" stroke="none"/><text fill="#000000" font-family="Arial" font-size="13px" font-style="normal" font-weight="bold" stroke="none" text-decoration="none" x="480.333251953125" y="59.5">Sensor Communication Handler</text></g></g><g transform="translate(-30,2) scale(1,1)"><path d="M 573.5 80 L 573.5 1006" fill="none" stroke="#000000" stroke-dasharray="3" stroke-miterlimit="10"/></g><g transform="translate(-30,2) scale(1,1)"><rect fill="#C0C0C0" height="39" opacity="0.2" stroke="none" width="223.90869140625" x="767" y="47"/></g><g transform="translate(-30,2) scale(1,1)"><rect fill="#ffffff" height="39" stroke="none" width="223.90869140625" x="760" y="40"/></g><g transform="translate(-30,2) scale(1,1)"><path d="M 760 40 L 983.90869140625 40 L 983.90869140625 79 L 760 79 L 760 40 Z Z" fill="none" stroke="#000000" stroke-miterlimit="10"/></g><g transform="translate(-30,2) scale(1,1)"><g><path fill="none" stroke="none"/><text fill="#000000" font-family="Arial" font-size="13px" font-style="normal" font-weight="bold" stroke="none" text-decoration="none" x="776.330078125" y="59.5">Computer Vision and AI Analyzer</text></g></g><g transform="translate(-30,2) scale(1,1)"><path d="M 872.5 80 L 872.5 992" fill="none" stroke="#000000" stroke-dasharray="3" stroke-miterlimit="10"/></g><g transform="translate(-30,2) scale(1,1)"><rect fill="#C0C0C0" height="39" opacity="0.2" stroke="none" width="125.20263671875" x="1295" y="47"/></g><g transform="translate(-30,2) scale(1,1)"><rect fill="#ffffff" height="39" stroke="none" width="125.20263671875" x="1288" y="40"/></g><g transform="translate(-30,2) scale(1,1)"><path d="M 1288 40 L 1413.20263671875 40 L 1413.20263671875 79 L 1288 79 L 1288 40 Z Z" fill="none" stroke="#000000" stroke-miterlimit="10"/></g><g transform="translate(-30,2) scale(1,1)"><g><path fill="none" stroke="none"/><text fill="#000000" font-family="Arial" font-size="13px" font-style="normal" font-weight="bold" stroke="none" text-decoration="none" x="1300.3818359375" y="59.5">Payment Handler</text></g></g><g transform="translate(-30,2) scale(1,1)"><path d="M 1351.5 80 L 1351.5 992" fill="none" stroke="#000000" stroke-dasharray="3" stroke-miterlimit="10"/></g><g transform="translate(-30,2) scale(1,1)"><rect fill="#C0C0C0" height="39" opacity="0.2" stroke="none" width="128.82080078125" x="1055" y="47"/></g><g transform="translate(-30,2) scale(1,1)"><rect fill="#ffffff" height="39" stroke="none" width="128.82080078125" x="1048" y="40"/></g><g transform="translate(-30,2) scale(1,1)"><path d="M 1048 40 L 1176.82080078125 40 L 1176.82080078125 79 L 1048 79 L 1048 40 Z Z" fill="none" stroke="#000000" stroke-miterlimit="10"/></g><g transform="translate(-30,2) scale(1,1)"><g><path fill="none" stroke="none"/><text fill="#000000" font-family="Arial" font-size="13px" font-style="normal" font-weight="bold" stroke="none" text-decoration="none" x="1060.016845703125" y="59.5">Database Handler</text></g></g><g transform="translate(-30,2) scale(1,1)"><path d="M 1113.5 80 L 1113.5 880" fill="none" stroke="#000000" stroke-dasharray="3" stroke-miterlimit="10"/></g><g transform="translate(-30,2) scale(1,1)"><path d="M 573 112 L 139 112" fill="none" stroke="#000000" stroke-miterlimit="10"/></g><g transform="translate(-30,2) scale(1,1)"><path d="M 149.16267485762415 107.79048224398402 L 139 112 L 149.16267485762415 116.20951775601598" fill="#000000" stroke="none"/></g><g transform="translate(-30,2) scale(1,1)"><path d="M 149.16267485762415 107.79048224398402 L 139 112 L 149.16267485762415 116.20951775601598 L 149.16267485762415 107.79048224398402" fill="none" stroke="#000000" stroke-miterlimit="10"/></g><g transform="translate(-30,2) scale(1,1)"><g><path fill="none" stroke="none"/><text fill="#000000" font-family="Arial" font-size="13px" font-style="normal" font-weight="normal" stroke="none" text-decoration="none" x="166.5" y="132.5">1 : readRawData(sensorID)</text></g></g><g transform="translate(-30,2) scale(1,1)"><rect fill="#ffffff" height="880" stroke="none" width="13" x="126" y="112"/></g><g transform="translate(-30,2) scale(1,1)"><path d="M 126 112 L 139 112 L 139 992 L 126 992 L 126 112 Z Z" fill="none" stroke="#000000" stroke-miterlimit="10"/></g><g transform="translate(-30,2) scale(1,1)"><path d="M 139 160 L 573 160" fill="none" stroke="#000000" stroke-dasharray="3" stroke-miterlimit="10"/></g><g transform="translate(-30,2) scale(1,1)"><path d="M 562.8373251423759 164.209517756016 L 573 160 L 562.8373251423758 155.790482243984" fill="none" stroke="#000000" stroke-miterlimit="10"/></g><g transform="translate(-30,2) scale(1,1)"><g><path fill="none" stroke="none"/><text fill="#000000" font-family="Arial" font-size="13px" font-style="normal" font-weight="normal" stroke="none" text-decoration="none" x="177.5" y="180.5">2 : postRawData(void)</text></g></g><g transform="translate(-30,2) scale(1,1)"><path d="M 878 208 L 908 208 L 908 228 L 885 228" fill="none" stroke="#000000" stroke-miterlimit="10"/></g><g transform="translate(-30,2) scale(1,1)"><path d="M 895.1626748576241 223.790482243984 L 885 228 L 895.1626748576241 232.209517756016" fill="#000000" stroke="none"/></g><g transform="translate(-30,2) scale(1,1)"><path d="M 895.1626748576241 223.790482243984 L 885 228 L 895.1626748576241 232.209517756016 L 895.1626748576241 223.790482243984" fill="none" stroke="#000000" stroke-miterlimit="10"/></g><g transform="translate(-30,2) scale(1,1)"><g><path fill="none" stroke="none"/><text fill="#000000" font-family="Arial" font-size="13px" font-style="normal" font-weight="normal" stroke="none" text-decoration="none" x="887.5" y="204.5">4 : processRawData(rawSensorData)</text></g></g><g transform="translate(-30,2) scale(1,1)"><rect fill="#ffffff" height="28" stroke="none" width="13" x="872" y="228"/></g><g transform="translate(-30,2) scale(1,1)"><path d="M 872 228 L 885 228 L 885 256 L 872 256 L 872 228 Z Z" fill="none" stroke="#000000" stroke-miterlimit="10"/></g><g transform="translate(-30,2) scale(1,1)"><path d="M 573 192 L 865 192" fill="none" stroke="#000000" stroke-miterlimit="10"/></g><g transform="translate(-30,2) scale(1,1)"><path d="M 854.8373251423759 196.209517756016 L 865 192 L 854.8373251423758 187.790482243984" fill="#000000" stroke="none"/></g><g transform="translate(-30,2) scale(1,1)"><path d="M 854.8373251423759 196.209517756016 L 865 192 L 854.8373251423758 187.790482243984 L 854.8373251423759 196.209517756016" fill="none" stroke="#000000" stroke-miterlimit="10"/></g><g transform="translate(-30,2) scale(1,1)"><g><path fill="none" stroke="none"/><text fill="#000000" font-family="Arial" font-size="13px" font-style="normal" font-weight="normal" stroke="none" text-decoration="none" x="652.5" y="188.5">3 : sendRawData(void)</text></g></g><g transform="translate(-30,2) scale(1,1)"><rect fill="#ffffff" height="232" stroke="none" width="13" x="865" y="192"/></g><g transform="translate(-30,2) scale(1,1)"><path d="M 865 192 L 878 192 L 878 424 L 865 424 L 865 192 Z Z" fill="none" stroke="#000000" stroke-miterlimit="10"/></g><g transform="translate(-30,2) scale(1,1)"><path d="M 878 274 L 1106 274" fill="none" stroke="#000000" stroke-miterlimit="10"/></g><g transform="translate(-30,2) scale(1,1)"><path d="M 1095.837325142376 278.209517756016 L 1106 274 L 1095.837325142376 269.790482243984" fill="#000000" stroke="none"/></g><g transform="translate(-30,2) scale(1,1)"><path d="M 1095.837325142376 278.209517756016 L 1106 274 L 1095.837325142376 269.790482243984 L 1095.837325142376 278.209517756016" fill="none" stroke="#000000" stroke-miterlimit="10"/></g><g transform="translate(-30,2) scale(1,1)"><g><path fill="none" stroke="none"/><text fill="#000000" font-family="Arial" font-size="13px" font-style="normal" font-weight="normal" stroke="none" text-decoration="none" x="908.5" y="270.5">5 : sendProcessedData(void)</text></g></g><g transform="translate(-30,2) scale(1,1)"><rect fill="#ffffff" height="126" stroke="none" width="13" x="1106" y="274"/></g><g transform="translate(-30,2) scale(1,1)"><path d="M 1106 274 L 1119 274 L 1119 400 L 1106 400 L 1106 274 Z Z" fill="none" stroke="#000000" stroke-miterlimit="10"/></g><g transform="translate(-30,2) scale(1,1)"><path d="M 1119 296 L 1149 296 L 1149 316 L 1126 316" fill="none" stroke="#000000" stroke-miterlimit="10"/></g><g transform="translate(-30,2) scale(1,1)"><path d="M 1136.162674857624 311.790482243984 L 1126 316 L 1136.162674857624 320.209517756016" fill="#000000" stroke="none"/></g><g transform="translate(-30,2) scale(1,1)"><path d="M 1136.162674857624 311.790482243984 L 1126 316 L 1136.162674857624 320.209517756016 L 1136.162674857624 311.790482243984" fill="none" stroke="#000000" stroke-miterlimit="10"/></g><g transform="translate(-30,2) scale(1,1)"><g><path fill="none" stroke="none"/><text fill="#000000" font-family="Arial" font-size="13px" font-style="normal" font-weight="normal" stroke="none" text-decoration="none" x="1126.5" y="292.5">6 : addRecordToTable(logTable, processedData)</text></g></g><g transform="translate(-30,2) scale(1,1)"><rect fill="#ffffff" height="28" stroke="none" width="13" x="1113" y="316"/></g><g transform="translate(-30,2) scale(1,1)"><path d="M 1113 316 L 1126 316 L 1126 344 L 1113 344 L 1113 316 Z Z" fill="none" stroke="#000000" stroke-miterlimit="10"/></g><g transform="translate(-30,2) scale(1,1)"><path d="M 1106 352 L 878 352" fill="none" stroke="#000000" stroke-dasharray="3" stroke-miterlimit="10"/></g><g transform="translate(-30,2) scale(1,1)"><path d="M 888.1626748576241 347.790482243984 L 878 352 L 888.1626748576241 356.209517756016" fill="none" stroke="#000000" stroke-miterlimit="10"/></g><g transform="translate(-30,2) scale(1,1)"><g><path fill="none" stroke="none"/><text fill="#000000" font-family="Arial" font-size="13px" font-style="normal" font-weight="normal" stroke="none" text-decoration="none" x="972.5" y="368.5">7 : OK</text></g></g><g transform="translate(-30,2) scale(1,1)"><path d="M 865 368 L 573 368" fill="none" stroke="#000000" stroke-dasharray="3" stroke-miterlimit="10"/></g><g transform="translate(-30,2) scale(1,1)"><path d="M 583.1626748576241 363.790482243984 L 573 368 L 583.1626748576241 372.209517756016" fill="none" stroke="#000000" stroke-miterlimit="10"/></g><g transform="translate(-30,2) scale(1,1)"><g><path fill="none" stroke="none"/><text fill="#000000" font-family="Arial" font-size="13px" font-style="normal" font-weight="normal" stroke="none" text-decoration="none" x="674.58544921875" y="384.5">8 : isExit = true</text></g></g><g transform="translate(-30,2) scale(1,1)"><path d="M 573 392 L 349 392" fill="none" stroke="#000000" stroke-dasharray="3" stroke-miterlimit="10"/></g><g transform="translate(-30,2) scale(1,1)"><path d="M 359.16267485762415 387.790482243984 L 349 392 L 359.16267485762415 396.209517756016" fill="none" stroke="#000000" stroke-miterlimit="10"/></g><g transform="translate(-30,2) scale(1,1)"><g><path fill="none" stroke="none"/><text fill="#000000" font-family="Arial" font-size="13px" font-style="normal" font-weight="normal" stroke="none" text-decoration="none" x="416.5" y="408.5">9 : isExit = true</text></g></g><g transform="translate(-30,2) scale(1,1)"><path d="M 349 504 L 1344 504" fill="none" stroke="#000000" stroke-miterlimit="10"/></g><g transform="translate(-30,2) scale(1,1)"><path d="M 1333.837325142376 508.209517756016 L 1344 504 L 1333.837325142376 499.790482243984" fill="#000000" stroke="none"/></g><g transform="translate(-30,2) scale(1,1)"><path d="M 1333.837325142376 508.209517756016 L 1344 504 L 1333.837325142376 499.790482243984 L 1333.837325142376 508.209517756016" fill="none" stroke="#000000" stroke-miterlimit="10"/></g><g transform="translate(-30,2) scale(1,1)"><g><path fill="none" stroke="none"/><text fill="#000000" font-family="Arial" font-size="13px" font-style="normal" font-weight="normal" stroke="none" text-decoration="none" x="711.5" y="491.5">10 : makePayment(customerID)</text></g></g><g transform="translate(-30,2) scale(1,1)"><rect fill="#ffffff" height="272" stroke="none" width="13" x="1344" y="504"/></g><g transform="translate(-30,2) scale(1,1)"><path d="M 1344 504 L 1357 504 L 1357 776 L 1344 776 L 1344 504 Z Z" fill="none" stroke="#000000" stroke-miterlimit="10"/></g><g transform="translate(-30,2) scale(1,1)"><path d="M 1344 517 L 1119 517" fill="none" stroke="#000000" stroke-miterlimit="10"/></g><g transform="translate(-30,2) scale(1,1)"><path d="M 1129.162674857624 512.790482243984 L 1119 517 L 1129.162674857624 521.209517756016" fill="#000000" stroke="none"/></g><g transform="translate(-30,2) scale(1,1)"><path d="M 1129.162674857624 512.790482243984 L 1119 517 L 1129.162674857624 521.209517756016 L 1129.162674857624 512.790482243984" fill="none" stroke="#000000" stroke-miterlimit="10"/></g><g transform="translate(-30,2) scale(1,1)"><g><path fill="none" stroke="none"/><text fill="#000000" font-family="Arial" font-size="13px" font-style="normal" font-weight="normal" stroke="none" text-decoration="none" x="1130.5" y="533.5">11 : readPaymentInfo(customerID)</text></g></g><g transform="translate(-30,2) scale(1,1)"><rect fill="#ffffff" height="67" stroke="none" width="13" x="1106" y="517"/></g><g transform="translate(-30,2) scale(1,1)"><path d="M 1106 517 L 1119 517 L 1119 584 L 1106 584 L 1106 517 Z Z" fill="none" stroke="#000000" stroke-miterlimit="10"/></g><g transform="translate(-30,2) scale(1,1)"><path d="M 1119 560 L 1344 560" fill="none" stroke="#000000" stroke-dasharray="3" stroke-miterlimit="10"/></g><g transform="translate(-30,2) scale(1,1)"><path d="M 1333.837325142376 564.209517756016 L 1344 560 L 1333.837325142376 555.790482243984" fill="none" stroke="#000000" stroke-miterlimit="10"/></g><g transform="translate(-30,2) scale(1,1)"><g><path fill="none" stroke="none"/><text fill="#000000" font-family="Arial" font-size="13px" font-style="normal" font-weight="normal" stroke="none" text-decoration="none" x="1172.5" y="556.5">12 : payment details</text></g></g><g transform="translate(-30,2) scale(1,1)"><path d="M 1344 600 L 1119 600" fill="none" stroke="#000000" stroke-miterlimit="10"/></g><g transform="translate(-30,2) scale(1,1)"><path d="M 1129.162674857624 595.790482243984 L 1119 600 L 1129.162674857624 604.209517756016" fill="#000000" stroke="none"/></g><g transform="translate(-30,2) scale(1,1)"><path d="M 1129.162674857624 595.790482243984 L 1119 600 L 1129.162674857624 604.209517756016 L 1129.162674857624 595.790482243984" fill="none" stroke="#000000" stroke-miterlimit="10"/></g><g transform="translate(-30,2) scale(1,1)"><g><path fill="none" stroke="none"/><text fill="#000000" font-family="Arial" font-size="13px" font-style="normal" font-weight="normal" stroke="none" text-decoration="none" x="1154.5" y="616.5">13 : readCart(customerID)</text></g></g><g transform="translate(-30,2) scale(1,1)"><rect fill="#ffffff" height="64" stroke="none" width="13" x="1106" y="600"/></g><g transform="translate(-30,2) scale(1,1)"><path d="M 1106 600 L 1119 600 L 1119 664 L 1106 664 L 1106 600 Z Z" fill="none" stroke="#000000" stroke-miterlimit="10"/></g><g transform="translate(-30,2) scale(1,1)"><path d="M 1119 640 L 1344 640" fill="none" stroke="#000000" stroke-dasharray="3" stroke-miterlimit="10"/></g><g transform="translate(-30,2) scale(1,1)"><path d="M 1333.837325142376 644.209517756016 L 1344 640 L 1333.837325142376 635.790482243984" fill="none" stroke="#000000" stroke-miterlimit="10"/></g><g transform="translate(-30,2) scale(1,1)"><g><path fill="none" stroke="none"/><text fill="#000000" font-family="Arial" font-size="13px" font-style="normal" font-weight="normal" stroke="none" text-decoration="none" x="1186.5" y="636.5">14 : cart details</text></g></g><g transform="translate(-30,2) scale(1,1)"><path d="M 1357 672 L 1387 672 L 1387 692 L 1364 692" fill="none" stroke="#000000" stroke-miterlimit="10"/></g><g transform="translate(-30,2) scale(1,1)"><path d="M 1374.162674857624 687.790482243984 L 1364 692 L 1374.162674857624 696.209517756016" fill="#000000" stroke="none"/></g><g transform="translate(-30,2) scale(1,1)"><path d="M 1374.162674857624 687.790482243984 L 1364 692 L 1374.162674857624 696.209517756016 L 1374.162674857624 687.790482243984" fill="none" stroke="#000000" stroke-miterlimit="10"/></g><g transform="translate(-30,2) scale(1,1)"><g><path fill="none" stroke="none"/><text fill="#000000" font-family="Arial" font-size="13px" font-style="normal" font-weight="normal" stroke="none" text-decoration="none" x="1359.5" y="668.5">15 : sendPaymentRequest(bankID,cost,paymDetails)</text></g></g><g transform="translate(-30,2) scale(1,1)"><rect fill="#ffffff" height="28" stroke="none" width="13" x="1351" y="692"/></g><g transform="translate(-30,2) scale(1,1)"><path d="M 1351 692 L 1364 692 L 1364 720 L 1351 720 L 1351 692 Z Z" fill="none" stroke="#000000" stroke-miterlimit="10"/></g><g transform="translate(-30,2) scale(1,1)"><path d="M 1344 747 L 349 747" fill="none" stroke="#000000" stroke-dasharray="3" stroke-miterlimit="10"/></g><g transform="translate(-30,2) scale(1,1)"><path d="M 359.16267485762415 742.790482243984 L 349 747 L 359.16267485762415 751.209517756016" fill="none" stroke="#000000" stroke-miterlimit="10"/></g><g transform="translate(-30,2) scale(1,1)"><g><path fill="none" stroke="none"/><text fill="#000000" font-family="Arial" font-size="13px" font-style="normal" font-weight="normal" stroke="none" text-decoration="none" x="1175.5" y="771.5">16 : validatePayment(void)</text></g></g><g transform="translate(-30,2) scale(1,1)"><path d="M 1351 864 L 349 864" fill="none" stroke="#000000" stroke-dasharray="3" stroke-miterlimit="10"/></g><g transform="translate(-30,2) scale(1,1)"><path d="M 359.16267485762415 859.790482243984 L 349 864 L 359.16267485762415 868.209517756016" fill="none" stroke="#000000" stroke-miterlimit="10"/></g><g transform="translate(-30,2) scale(1,1)"><g><path fill="none" stroke="none"/><text fill="#000000" font-family="Arial" font-size="13px" font-style="normal" font-weight="normal" stroke="none" text-decoration="none" x="1158.5" y="883.5">18 : raisePeymontError(void)</text></g></g><g transform="translate(-30,2) scale(1,1)"><path d="M 349 896 L 379 896 L 379 916 L 355 916" fill="none" stroke="#000000" stroke-miterlimit="10"/></g><g transform="translate(-30,2) scale(1,1)"><path d="M 365.16267485762415 911.790482243984 L 355 916 L 365.16267485762415 920.209517756016" fill="#000000" stroke="none"/></g><g transform="translate(-30,2) scale(1,1)"><path d="M 365.16267485762415 911.790482243984 L 355 916 L 365.16267485762415 920.209517756016 L 365.16267485762415 911.790482243984" fill="none" stroke="#000000" stroke-miterlimit="10"/></g><g transform="translate(-30,2) scale(1,1)"><g><path fill="none" stroke="none"/><text fill="#000000" font-family="Arial" font-size="13px" font-style="normal" font-weight="normal" stroke="none" text-decoration="none" x="312.5" y="911.5">19 : displayErrorMsg(void)</text></g></g><g transform="translate(-30,2) scale(1,1)"><rect fill="#ffffff" height="28" stroke="none" width="13" x="342" y="916"/></g><g transform="translate(-30,2) scale(1,1)"><path d="M 342 916 L 355 916 L 355 944 L 342 944 L 342 916 Z Z" fill="none" stroke="#000000" stroke-miterlimit="10"/></g><g transform="translate(-30,2) scale(1,1)"><path d="M 349 776 L 379 776 L 379 796 L 355 796" fill="none" stroke="#000000" stroke-miterlimit="10"/></g><g transform="translate(-30,2) scale(1,1)"><path d="M 365.16267485762415 791.790482243984 L 355 796 L 365.16267485762415 800.209517756016" fill="#000000" stroke="none"/></g><g transform="translate(-30,2) scale(1,1)"><path d="M 365.16267485762415 791.790482243984 L 355 796 L 365.16267485762415 800.209517756016 L 365.16267485762415 791.790482243984" fill="none" stroke="#000000" stroke-miterlimit="10"/></g><g transform="translate(-30,2) scale(1,1)"><g><path fill="none" stroke="none"/><text fill="#000000" font-family="Arial" font-size="13px" font-style="normal" font-weight="normal" stroke="none" text-decoration="none" x="374.5" y="812.5">17 : displaySuccessMsg(void)</text></g></g><g transform="translate(-30,2) scale(1,1)"><rect fill="#ffffff" height="28" stroke="none" width="13" x="342" y="796"/></g><g transform="translate(-30,2) scale(1,1)"><path d="M 342 796 L 355 796 L 355 824 L 342 824 L 342 796 Z Z" fill="none" stroke="#000000" stroke-miterlimit="10"/></g><g transform="translate(-30,2) scale(1,1)"><path d="M 80 728 L 1424 728 L 1424 952 L 80 952 L 80 728" fill="none" stroke="#000000" stroke-miterlimit="10"/></g><g transform="translate(-30,2) scale(1,1)"><path d="M 80 728 L 80 750 L 130.68994140625 750 L 141.68994140625 739 L 141.68994140625 728 L 80 728" fill="#ffffff" stroke="none"/></g><g transform="translate(-30,2) scale(1,1)"><path d="M 80 728 L 80 750 L 130.68994140625 750 L 141.68994140625 739 L 141.68994140625 728 L 80 728 L 80 728" fill="none" stroke="#000000" stroke-miterlimit="10"/></g><g transform="translate(-30,2) scale(1,1)"><g><path fill="none" stroke="none"/><text fill="#000000" font-family="Arial" font-size="13px" font-style="normal" font-weight="normal" stroke="none" text-decoration="none" x="104.72998046875" y="745.5">alt1</text></g></g><g transform="translate(-30,2) scale(1,1)"><g><path fill="none" stroke="none"/><text fill="#000000" font-family="Arial" font-size="13px" font-style="normal" font-weight="bold" stroke="none" text-decoration="none" x="85" y="745.5">alt</text></g></g><g transform="translate(-30,2) scale(1,1)"><path d="M 80 841 L 1424 841" fill="none" stroke="#000000" stroke-dasharray="10,3" stroke-miterlimit="10"/></g></g></svg>