<?xml version="1.0" encoding="UTF-8" standalone="no"?><svg xmlns="http://www.w3.org/2000/svg" xmlns:xlink="http://www.w3.org/1999/xlink" height="828" version="1.1" width="1132"><defs/><g><g transform="translate(-182,10) scale(1,1)"><path d="M 200 0 L 1304 0 L 1304 808 L 200 808 L 200 0" fill="none" stroke="#000000" stroke-miterlimit="10"/></g><g transform="translate(-182,10) scale(1,1)"><path d="M 200 0 L 200 22 L 510.82958984375 22 L 521.82958984375 11 L 521.82958984375 0 L 200 0" fill="#ffffff" stroke="none"/></g><g transform="translate(-182,10) scale(1,1)"><path d="M 200 0 L 200 22 L 510.82958984375 22 L 521.82958984375 11 L 521.82958984375 0 L 200 0 L 200 0" fill="none" stroke="#000000" stroke-miterlimit="10"/></g><g transform="translate(-182,10) scale(1,1)"><g><path fill="none" stroke="none"/><text fill="#000000" font-family="Arial" font-size="13px" font-style="normal" font-weight="normal" stroke="none" text-decoration="none" x="270.97900390625" y="17.5">Enter Personal and Payment Information</text></g></g><g transform="translate(-182,10) scale(1,1)"><g><path fill="none" stroke="none"/><text fill="#000000" font-family="Arial" font-size="13px" font-style="normal" font-weight="bold" stroke="none" text-decoration="none" x="205" y="17.5">interaction</text></g></g><g transform="translate(-182,10) scale(1,1)"><path d="M 574.185899325284 47.3 C 574.185899325284 43.82060576 577.064301047466 41 580.614990234375 41 C 584.165679421284 41 587.0440811434659 43.82060576 587.0440811434659 47.3 C 587.0440811434659 50.779394239999995 584.165679421284 53.6 580.614990234375 53.6 C 577.064301047466 53.6 574.185899325284 50.779394239999995 574.185899325284 47.3 Z" fill="#ffffff" stroke="none"/></g><g transform="translate(-182,10) scale(1,1)"><path d="M 574.185899325284 47.3 C 574.185899325284 43.82060576 577.064301047466 41 580.614990234375 41 C 584.165679421284 41 587.0440811434659 43.82060576 587.0440811434659 47.3 C 587.0440811434659 50.779394239999995 584.165679421284 53.6 580.614990234375 53.6 C 577.064301047466 53.6 574.185899325284 50.779394239999995 574.185899325284 47.3 Z" fill="none" stroke="#000000" stroke-miterlimit="10"/></g><g transform="translate(-182,10) scale(1,1)"><path d="M 580.614990234375 53.6 L 580.614990234375 66.4" fill="none" stroke="#000000" stroke-miterlimit="10"/></g><g transform="translate(-182,10) scale(1,1)"><path d="M 573.8077175071022 58.4 L 587.4222629616477 58.4" fill="none" stroke="#000000" stroke-miterlimit="10"/></g><g transform="translate(-182,10) scale(1,1)"><path d="M 580.614990234375 66.4 L 571.1604447798295 79" fill="none" stroke="#000000" stroke-miterlimit="10"/></g><g transform="translate(-182,10) scale(1,1)"><path d="M 580.614990234375 66.4 L 590.0695356889204 79" fill="none" stroke="#000000" stroke-miterlimit="10"/></g><g transform="translate(-182,10) scale(1,1)"><g><path fill="none" stroke="none"/><text fill="#000000" font-family="Arial" font-size="13px" font-style="normal" font-weight="bold" stroke="none" text-decoration="none" x="500.037841796875" y="99.5">Lifeline2: Mobile Application</text></g></g><g transform="translate(-182,10) scale(1,1)"><path d="M 581.5 105 L 581.5 783" fill="none" stroke="#000000" stroke-dasharray="3" stroke-miterlimit="10"/></g><g transform="translate(-182,10) scale(1,1)"><path d="M 278.1858993252841 47.3 C 278.1858993252841 43.82060576 281.0643010474659 41 284.614990234375 41 C 288.1656794212841 41 291.044081143466 43.82060576 291.044081143466 47.3 C 291.044081143466 50.779394239999995 288.1656794212841 53.6 284.614990234375 53.6 C 281.0643010474659 53.6 278.1858993252841 50.779394239999995 278.1858993252841 47.3 Z" fill="#ffffff" stroke="none"/></g><g transform="translate(-182,10) scale(1,1)"><path d="M 278.1858993252841 47.3 C 278.1858993252841 43.82060576 281.0643010474659 41 284.614990234375 41 C 288.1656794212841 41 291.044081143466 43.82060576 291.044081143466 47.3 C 291.044081143466 50.779394239999995 288.1656794212841 53.6 284.614990234375 53.6 C 281.0643010474659 53.6 278.1858993252841 50.779394239999995 278.1858993252841 47.3 Z" fill="none" stroke="#000000" stroke-miterlimit="10"/></g><g transform="translate(-182,10) scale(1,1)"><path d="M 284.614990234375 53.6 L 284.614990234375 66.4" fill="none" stroke="#000000" stroke-miterlimit="10"/></g><g transform="translate(-182,10) scale(1,1)"><path d="M 277.80771750710227 58.4 L 291.4222629616478 58.4" fill="none" stroke="#000000" stroke-miterlimit="10"/></g><g transform="translate(-182,10) scale(1,1)"><path d="M 284.614990234375 66.4 L 275.16044477982956 79" fill="none" stroke="#000000" stroke-miterlimit="10"/></g><g transform="translate(-182,10) scale(1,1)"><path d="M 284.614990234375 66.4 L 294.0695356889205 79" fill="none" stroke="#000000" stroke-miterlimit="10"/></g><g transform="translate(-182,10) scale(1,1)"><g><path fill="none" stroke="none"/><text fill="#000000" font-family="Arial" font-size="13px" font-style="normal" font-weight="bold" stroke="none" text-decoration="none" x="225.365966796875" y="99.5">Lifeline1: Customers</text></g></g><g transform="translate(-182,10) scale(1,1)"><path d="M 285.5 105 L 285.5 783" fill="none" stroke="#000000" stroke-dasharray="3" stroke-miterlimit="10"/></g><g transform="translate(-182,10) scale(1,1)"><rect fill="#C0C0C0" height="39" opacity="0.2" stroke="none" width="128" x="751" y="47"/></g><g transform="translate(-182,10) scale(1,1)"><rect fill="#ffffff" height="39" stroke="none" width="128" x="744" y="40"/></g><g transform="translate(-182,10) scale(1,1)"><path d="M 744 40 L 872 40 L 872 79 L 744 79 L 744 40 Z Z" fill="none" stroke="#000000" stroke-miterlimit="10"/></g><g transform="translate(-182,10) scale(1,1)"><g><path fill="none" stroke="none"/><text fill="#000000" font-family="Arial" font-size="13px" font-style="normal" font-weight="bold" stroke="none" text-decoration="none" x="764.2900390625" y="59.5">Remote Server</text></g></g><g transform="translate(-182,10) scale(1,1)"><path d="M 809.5 80 L 809.5 718" fill="none" stroke="#000000" stroke-dasharray="3" stroke-miterlimit="10"/></g><g transform="translate(-182,10) scale(1,1)"><rect fill="#C0C0C0" height="39" opacity="0.2" stroke="none" width="152.82080078125" x="1135" y="47"/></g><g transform="translate(-182,10) scale(1,1)"><rect fill="#ffffff" height="39" stroke="none" width="152.82080078125" x="1128" y="40"/></g><g transform="translate(-182,10) scale(1,1)"><path d="M 1128 40 L 1280.82080078125 40 L 1280.82080078125 79 L 1128 79 L 1128 40 Z Z" fill="none" stroke="#000000" stroke-miterlimit="10"/></g><g transform="translate(-182,10) scale(1,1)"><g><path fill="none" stroke="none"/><text fill="#000000" font-family="Arial" font-size="13px" font-style="normal" font-weight="bold" stroke="none" text-decoration="none" x="1152.016845703125" y="59.5">Database Handler</text></g></g><g transform="translate(-182,10) scale(1,1)"><path d="M 1205.5 80 L 1205.5 700" fill="none" stroke="#000000" stroke-dasharray="3" stroke-miterlimit="10"/></g><g transform="translate(-182,10) scale(1,1)"><path d="M 285 152 L 574 152" fill="none" stroke="#000000" stroke-miterlimit="10"/></g><g transform="translate(-182,10) scale(1,1)"><path d="M 563.8373251423759 156.209517756016 L 574 152 L 563.8373251423758 147.790482243984" fill="#000000" stroke="none"/></g><g transform="translate(-182,10) scale(1,1)"><path d="M 563.8373251423759 156.209517756016 L 574 152 L 563.8373251423758 147.790482243984 L 563.8373251423759 156.209517756016" fill="none" stroke="#000000" stroke-miterlimit="10"/></g><g transform="translate(-182,10) scale(1,1)"><g><path fill="none" stroke="none"/><text fill="#000000" font-family="Arial" font-size="13px" font-style="normal" font-weight="normal" stroke="none" text-decoration="none" x="347.5" y="140.5">1 : loginToApp(username,pw)</text></g></g><g transform="translate(-182,10) scale(1,1)"><rect fill="#ffffff" height="633" stroke="none" width="13" x="574" y="152"/></g><g transform="translate(-182,10) scale(1,1)"><path d="M 574 152 L 587 152 L 587 785 L 574 785 L 574 152 Z Z" fill="none" stroke="#000000" stroke-miterlimit="10"/></g><g transform="translate(-182,10) scale(1,1)"><path d="M 587 168 L 802 168" fill="none" stroke="#000000" stroke-miterlimit="10"/></g><g transform="translate(-182,10) scale(1,1)"><path d="M 791.8373251423759 172.209517756016 L 802 168 L 791.8373251423758 163.790482243984" fill="#000000" stroke="none"/></g><g transform="translate(-182,10) scale(1,1)"><path d="M 791.8373251423759 172.209517756016 L 802 168 L 791.8373251423758 163.790482243984 L 791.8373251423759 172.209517756016" fill="none" stroke="#000000" stroke-miterlimit="10"/></g><g transform="translate(-182,10) scale(1,1)"><g><path fill="none" stroke="none"/><text fill="#000000" font-family="Arial" font-size="13px" font-style="normal" font-weight="normal" stroke="none" text-decoration="none" x="588.5" y="164.5">2 : postUnameandPw(username,pw)</text></g></g><g transform="translate(-182,10) scale(1,1)"><rect fill="#ffffff" height="131" stroke="none" width="13" x="802" y="168"/></g><g transform="translate(-182,10) scale(1,1)"><path d="M 802 168 L 815 168 L 815 299 L 802 299 L 802 168 Z Z" fill="none" stroke="#000000" stroke-miterlimit="10"/></g><g transform="translate(-182,10) scale(1,1)"><path d="M 815 176 L 1198 176" fill="none" stroke="#000000" stroke-miterlimit="10"/></g><g transform="translate(-182,10) scale(1,1)"><path d="M 1187.837325142376 180.209517756016 L 1198 176 L 1187.837325142376 171.790482243984" fill="#000000" stroke="none"/></g><g transform="translate(-182,10) scale(1,1)"><path d="M 1187.837325142376 180.209517756016 L 1198 176 L 1187.837325142376 171.790482243984 L 1187.837325142376 180.209517756016" fill="none" stroke="#000000" stroke-miterlimit="10"/></g><g transform="translate(-182,10) scale(1,1)"><g><path fill="none" stroke="none"/><text fill="#000000" font-family="Arial" font-size="13px" font-style="normal" font-weight="normal" stroke="none" text-decoration="none" x="903.5" y="171.5">3 : getCustomerData(customerID)</text></g></g><g transform="translate(-182,10) scale(1,1)"><rect fill="#ffffff" height="64" stroke="none" width="13" x="1198" y="176"/></g><g transform="translate(-182,10) scale(1,1)"><path d="M 1198 176 L 1211 176 L 1211 240 L 1198 240 L 1198 176 Z Z" fill="none" stroke="#000000" stroke-miterlimit="10"/></g><g transform="translate(-182,10) scale(1,1)"><path d="M 1198 200 L 815 200" fill="none" stroke="#000000" stroke-dasharray="3" stroke-miterlimit="10"/></g><g transform="translate(-182,10) scale(1,1)"><path d="M 825.1626748576241 195.790482243984 L 815 200 L 825.1626748576241 204.209517756016" fill="none" stroke="#000000" stroke-miterlimit="10"/></g><g transform="translate(-182,10) scale(1,1)"><g><path fill="none" stroke="none"/><text fill="#000000" font-family="Arial" font-size="13px" font-style="normal" font-weight="normal" stroke="none" text-decoration="none" x="925.5" y="216.5">4 : username, encryptedPw</text></g></g><g transform="translate(-182,10) scale(1,1)"><path d="M 815 224 L 845 224 L 845 244 L 822 244" fill="none" stroke="#000000" stroke-miterlimit="10"/></g><g transform="translate(-182,10) scale(1,1)"><path d="M 832.1626748576241 239.790482243984 L 822 244 L 832.1626748576241 248.209517756016" fill="#000000" stroke="none"/></g><g transform="translate(-182,10) scale(1,1)"><path d="M 832.1626748576241 239.790482243984 L 822 244 L 832.1626748576241 248.209517756016 L 832.1626748576241 239.790482243984" fill="none" stroke="#000000" stroke-miterlimit="10"/></g><g transform="translate(-182,10) scale(1,1)"><g><path fill="none" stroke="none"/><text fill="#000000" font-family="Arial" font-size="13px" font-style="normal" font-weight="normal" stroke="none" text-decoration="none" x="846.5" y="244.5">5 : validateUser(username,encryptedPw)</text></g></g><g transform="translate(-182,10) scale(1,1)"><rect fill="#ffffff" height="28" stroke="none" width="13" x="809" y="244"/></g><g transform="translate(-182,10) scale(1,1)"><path d="M 809 244 L 822 244 L 822 272 L 809 272 L 809 244 Z Z" fill="none" stroke="#000000" stroke-miterlimit="10"/></g><g transform="translate(-182,10) scale(1,1)"><path d="M 809 264 L 587 264" fill="none" stroke="#000000" stroke-dasharray="3" stroke-miterlimit="10"/></g><g transform="translate(-182,10) scale(1,1)"><path d="M 597.1626748576241 259.790482243984 L 587 264 L 597.1626748576241 268.209517756016" fill="none" stroke="#000000" stroke-miterlimit="10"/></g><g transform="translate(-182,10) scale(1,1)"><g><path fill="none" stroke="none"/><text fill="#000000" font-family="Arial" font-size="13px" font-style="normal" font-weight="normal" stroke="none" text-decoration="none" x="678.5" y="280.5">6 : OK</text></g></g><g transform="translate(-182,10) scale(1,1)"><path d="M 574 288 L 285 288" fill="none" stroke="#000000" stroke-dasharray="3" stroke-miterlimit="10"/></g><g transform="translate(-182,10) scale(1,1)"><path d="M 295.16267485762415 283.790482243984 L 285 288 L 295.16267485762415 292.209517756016" fill="none" stroke="#000000" stroke-miterlimit="10"/></g><g transform="translate(-182,10) scale(1,1)"><g><path fill="none" stroke="none"/><text fill="#000000" font-family="Arial" font-size="13px" font-style="normal" font-weight="normal" stroke="none" text-decoration="none" x="379.5" y="308.5">7 : grant access</text></g></g><g transform="translate(-182,10) scale(1,1)"><path d="M 285 336 L 581 336" fill="none" stroke="#000000" stroke-miterlimit="10"/></g><g transform="translate(-182,10) scale(1,1)"><path d="M 570.8373251423759 340.209517756016 L 581 336 L 570.8373251423758 331.790482243984" fill="#000000" stroke="none"/></g><g transform="translate(-182,10) scale(1,1)"><path d="M 570.8373251423759 340.209517756016 L 581 336 L 570.8373251423758 331.790482243984 L 570.8373251423759 340.209517756016" fill="none" stroke="#000000" stroke-miterlimit="10"/></g><g transform="translate(-182,10) scale(1,1)"><g><path fill="none" stroke="none"/><text fill="#000000" font-family="Arial" font-size="13px" font-style="normal" font-weight="normal" stroke="none" text-decoration="none" x="341.841796875" y="331.5">8 : buttonUpdateDataClicked</text></g></g><g transform="translate(-182,10) scale(1,1)"><rect fill="#ffffff" height="163" stroke="none" width="13" x="581" y="336"/></g><g transform="translate(-182,10) scale(1,1)"><path d="M 581 336 L 594 336 L 594 499 L 581 499 L 581 336 Z Z" fill="none" stroke="#000000" stroke-miterlimit="10"/></g><g transform="translate(-182,10) scale(1,1)"><path d="M 581 368 L 285 368" fill="none" stroke="#000000" stroke-dasharray="3" stroke-miterlimit="10"/></g><g transform="translate(-182,10) scale(1,1)"><path d="M 295.16267485762415 363.790482243984 L 285 368 L 295.16267485762415 372.209517756016" fill="none" stroke="#000000" stroke-miterlimit="10"/></g><g transform="translate(-182,10) scale(1,1)"><g><path fill="none" stroke="none"/><text fill="#000000" font-family="Arial" font-size="13px" font-style="normal" font-weight="normal" stroke="none" text-decoration="none" x="347.114990234375" y="363.5">9 : personal information form</text></g></g><g transform="translate(-182,10) scale(1,1)"><path d="M 285 384 L 588 384" fill="none" stroke="#000000" stroke-miterlimit="10"/></g><g transform="translate(-182,10) scale(1,1)"><path d="M 577.8373251423759 388.209517756016 L 588 384 L 577.8373251423758 379.790482243984" fill="#000000" stroke="none"/></g><g transform="translate(-182,10) scale(1,1)"><path d="M 577.8373251423759 388.209517756016 L 588 384 L 577.8373251423758 379.790482243984 L 577.8373251423759 388.209517756016" fill="none" stroke="#000000" stroke-miterlimit="10"/></g><g transform="translate(-182,10) scale(1,1)"><g><path fill="none" stroke="none"/><text fill="#000000" font-family="Arial" font-size="13px" font-style="normal" font-weight="normal" stroke="none" text-decoration="none" x="313.5" y="417.5">10 : submitForm(personalOrPaymentData)</text></g></g><g transform="translate(-182,10) scale(1,1)"><rect fill="#ffffff" height="112" stroke="none" width="13" x="588" y="384"/></g><g transform="translate(-182,10) scale(1,1)"><path d="M 588 384 L 601 384 L 601 496 L 588 496 L 588 384 Z Z" fill="none" stroke="#000000" stroke-miterlimit="10"/></g><g transform="translate(-182,10) scale(1,1)"><path d="M 601 400 L 802 400" fill="none" stroke="#000000" stroke-miterlimit="10"/></g><g transform="translate(-182,10) scale(1,1)"><path d="M 791.8373251423759 404.209517756016 L 802 400 L 791.8373251423758 395.790482243984" fill="#000000" stroke="none"/></g><g transform="translate(-182,10) scale(1,1)"><path d="M 791.8373251423759 404.209517756016 L 802 400 L 791.8373251423758 395.790482243984 L 791.8373251423759 404.209517756016" fill="none" stroke="#000000" stroke-miterlimit="10"/></g><g transform="translate(-182,10) scale(1,1)"><g><path fill="none" stroke="none"/><text fill="#000000" font-family="Arial" font-size="13px" font-style="normal" font-weight="normal" stroke="none" text-decoration="none" x="616.72998046875" y="396.5">11 : postFormData(formData)</text></g></g><g transform="translate(-182,10) scale(1,1)"><rect fill="#ffffff" height="104" stroke="none" width="13" x="802" y="400"/></g><g transform="translate(-182,10) scale(1,1)"><path d="M 802 400 L 815 400 L 815 504 L 802 504 L 802 400 Z Z" fill="none" stroke="#000000" stroke-miterlimit="10"/></g><g transform="translate(-182,10) scale(1,1)"><path d="M 815 408 L 1198 408" fill="none" stroke="#000000" stroke-miterlimit="10"/></g><g transform="translate(-182,10) scale(1,1)"><path d="M 1187.837325142376 412.209517756016 L 1198 408 L 1187.837325142376 403.790482243984" fill="#000000" stroke="none"/></g><g transform="translate(-182,10) scale(1,1)"><path d="M 1187.837325142376 412.209517756016 L 1198 408 L 1187.837325142376 403.790482243984 L 1187.837325142376 412.209517756016" fill="none" stroke="#000000" stroke-miterlimit="10"/></g><g transform="translate(-182,10) scale(1,1)"><g><path fill="none" stroke="none"/><text fill="#000000" font-family="Arial" font-size="13px" font-style="normal" font-weight="normal" stroke="none" text-decoration="none" x="822.5" y="396.5">12 : updateRecord(customerTable, formData, oldCustomerData)</text></g></g><g transform="translate(-182,10) scale(1,1)"><rect fill="#ffffff" height="70" stroke="none" width="13" x="1198" y="408"/></g><g transform="translate(-182,10) scale(1,1)"><path d="M 1198 408 L 1211 408 L 1211 478 L 1198 478 L 1198 408 Z Z" fill="none" stroke="#000000" stroke-miterlimit="10"/></g><g transform="translate(-182,10) scale(1,1)"><path d="M 1198 432 L 815 432" fill="none" stroke="#000000" stroke-dasharray="3" stroke-miterlimit="10"/></g><g transform="translate(-182,10) scale(1,1)"><path d="M 825.1626748576241 427.790482243984 L 815 432 L 825.1626748576241 436.209517756016" fill="none" stroke="#000000" stroke-miterlimit="10"/></g><g transform="translate(-182,10) scale(1,1)"><g><path fill="none" stroke="none"/><text fill="#000000" font-family="Arial" font-size="13px" font-style="normal" font-weight="normal" stroke="none" text-decoration="none" x="927.5" y="448.5">13 : updateStatusMessage</text></g></g><g transform="translate(-182,10) scale(1,1)"><path d="M 802 448 L 601 448" fill="none" stroke="#000000" stroke-dasharray="3" stroke-miterlimit="10"/></g><g transform="translate(-182,10) scale(1,1)"><path d="M 611.1626748576241 443.790482243984 L 601 448 L 611.1626748576241 452.209517756016" fill="none" stroke="#000000" stroke-miterlimit="10"/></g><g transform="translate(-182,10) scale(1,1)"><g><path fill="none" stroke="none"/><text fill="#000000" font-family="Arial" font-size="13px" font-style="normal" font-weight="normal" stroke="none" text-decoration="none" x="677.5" y="464.5">14 : OK</text></g></g><g transform="translate(-182,10) scale(1,1)"><path d="M 588 464 L 285 464" fill="none" stroke="#000000" stroke-dasharray="3" stroke-miterlimit="10"/></g><g transform="translate(-182,10) scale(1,1)"><path d="M 295.16267485762415 459.790482243984 L 285 464 L 295.16267485762415 468.209517756016" fill="none" stroke="#000000" stroke-miterlimit="10"/></g><g transform="translate(-182,10) scale(1,1)"><g><path fill="none" stroke="none"/><text fill="#000000" font-family="Arial" font-size="13px" font-style="normal" font-weight="normal" stroke="none" text-decoration="none" x="316.5" y="480.5">15 : displayUpdateStatusMsg(statusMsg)</text></g></g><g transform="translate(-182,10) scale(1,1)"><path d="M 285 576 L 581 576" fill="none" stroke="#000000" stroke-miterlimit="10"/></g><g transform="translate(-182,10) scale(1,1)"><path d="M 570.8373251423759 580.209517756016 L 581 576 L 570.8373251423758 571.790482243984" fill="#000000" stroke="none"/></g><g transform="translate(-182,10) scale(1,1)"><path d="M 570.8373251423759 580.209517756016 L 581 576 L 570.8373251423758 571.790482243984 L 570.8373251423759 580.209517756016" fill="none" stroke="#000000" stroke-miterlimit="10"/></g><g transform="translate(-182,10) scale(1,1)"><g><path fill="none" stroke="none"/><text fill="#000000" font-family="Arial" font-size="13px" font-style="normal" font-weight="normal" stroke="none" text-decoration="none" x="359.5" y="572.5">16 : buttonSignUpClicked</text></g></g><g transform="translate(-182,10) scale(1,1)"><rect fill="#ffffff" height="28" stroke="none" width="13" x="581" y="576"/></g><g transform="translate(-182,10) scale(1,1)"><path d="M 581 576 L 594 576 L 594 604 L 581 604 L 581 576 Z Z" fill="none" stroke="#000000" stroke-miterlimit="10"/></g><g transform="translate(-182,10) scale(1,1)"><path d="M 581 593 L 285 593" fill="none" stroke="#000000" stroke-dasharray="3" stroke-miterlimit="10"/></g><g transform="translate(-182,10) scale(1,1)"><path d="M 295.16267485762415 588.790482243984 L 285 593 L 295.16267485762415 597.209517756016" fill="none" stroke="#000000" stroke-miterlimit="10"/></g><g transform="translate(-182,10) scale(1,1)"><g><path fill="none" stroke="none"/><text fill="#000000" font-family="Arial" font-size="13px" font-style="normal" font-weight="normal" stroke="none" text-decoration="none" x="383.5" y="609.5">17 : sign up data</text></g></g><g transform="translate(-182,10) scale(1,1)"><path d="M 285 640 L 581 640" fill="none" stroke="#000000" stroke-miterlimit="10"/></g><g transform="translate(-182,10) scale(1,1)"><path d="M 570.8373251423759 644.209517756016 L 581 640 L 570.8373251423758 635.790482243984" fill="#000000" stroke="none"/></g><g transform="translate(-182,10) scale(1,1)"><path d="M 570.8373251423759 644.209517756016 L 581 640 L 570.8373251423758 635.790482243984 L 570.8373251423759 644.209517756016" fill="none" stroke="#000000" stroke-miterlimit="10"/></g><g transform="translate(-182,10) scale(1,1)"><g><path fill="none" stroke="none"/><text fill="#000000" font-family="Arial" font-size="13px" font-style="normal" font-weight="normal" stroke="none" text-decoration="none" x="313.5" y="631.5">18 : submitForm(completePersonalData)</text></g></g><g transform="translate(-182,10) scale(1,1)"><rect fill="#ffffff" height="56" stroke="none" width="13" x="581" y="640"/></g><g transform="translate(-182,10) scale(1,1)"><path d="M 581 640 L 594 640 L 594 696 L 581 696 L 581 640 Z Z" fill="none" stroke="#000000" stroke-miterlimit="10"/></g><g transform="translate(-182,10) scale(1,1)"><path d="M 594 643 L 802 643" fill="none" stroke="#000000" stroke-miterlimit="10"/></g><g transform="translate(-182,10) scale(1,1)"><path d="M 791.8373251423759 647.209517756016 L 802 643 L 791.8373251423758 638.790482243984" fill="#000000" stroke="none"/></g><g transform="translate(-182,10) scale(1,1)"><path d="M 791.8373251423759 647.209517756016 L 802 643 L 791.8373251423758 638.790482243984 L 791.8373251423759 647.209517756016" fill="none" stroke="#000000" stroke-miterlimit="10"/></g><g transform="translate(-182,10) scale(1,1)"><g><path fill="none" stroke="none"/><text fill="#000000" font-family="Arial" font-size="13px" font-style="normal" font-weight="normal" stroke="none" text-decoration="none" x="613.5" y="639.5">19 : postFormData(formData)</text></g></g><g transform="translate(-182,10) scale(1,1)"><rect fill="#ffffff" height="61" stroke="none" width="13" x="802" y="643"/></g><g transform="translate(-182,10) scale(1,1)"><path d="M 802 643 L 815 643 L 815 704 L 802 704 L 802 643 Z Z" fill="none" stroke="#000000" stroke-miterlimit="10"/></g><g transform="translate(-182,10) scale(1,1)"><path d="M 815 648 L 1198 648" fill="none" stroke="#000000" stroke-miterlimit="10"/></g><g transform="translate(-182,10) scale(1,1)"><path d="M 1187.837325142376 652.209517756016 L 1198 648 L 1187.837325142376 643.790482243984" fill="#000000" stroke="none"/></g><g transform="translate(-182,10) scale(1,1)"><path d="M 1187.837325142376 652.209517756016 L 1198 648 L 1187.837325142376 643.790482243984 L 1187.837325142376 652.209517756016" fill="none" stroke="#000000" stroke-miterlimit="10"/></g><g transform="translate(-182,10) scale(1,1)"><g><path fill="none" stroke="none"/><text fill="#000000" font-family="Arial" font-size="13px" font-style="normal" font-weight="normal" stroke="none" text-decoration="none" x="862.5" y="644.5">20 : addRecordToTable(customerTable, formData)</text></g></g><g transform="translate(-182,10) scale(1,1)"><rect fill="#ffffff" height="28" stroke="none" width="13" x="1198" y="648"/></g><g transform="translate(-182,10) scale(1,1)"><path d="M 1198 648 L 1211 648 L 1211 676 L 1198 676 L 1198 648 Z Z" fill="none" stroke="#000000" stroke-miterlimit="10"/></g><g transform="translate(-182,10) scale(1,1)"><path d="M 1198 659 L 815 659" fill="none" stroke="#000000" stroke-dasharray="3" stroke-miterlimit="10"/></g><g transform="translate(-182,10) scale(1,1)"><path d="M 825.1626748576241 654.790482243984 L 815 659 L 825.1626748576241 663.209517756016" fill="none" stroke="#000000" stroke-miterlimit="10"/></g><g transform="translate(-182,10) scale(1,1)"><g><path fill="none" stroke="none"/><text fill="#000000" font-family="Arial" font-size="13px" font-style="normal" font-weight="normal" stroke="none" text-decoration="none" x="968.5" y="675.5">21 : success</text></g></g><g transform="translate(-182,10) scale(1,1)"><path d="M 802 672 L 594 672" fill="none" stroke="#000000" stroke-dasharray="3" stroke-miterlimit="10"/></g><g transform="translate(-182,10) scale(1,1)"><path d="M 604.1626748576241 667.790482243984 L 594 672 L 604.1626748576241 676.209517756016" fill="none" stroke="#000000" stroke-miterlimit="10"/></g><g transform="translate(-182,10) scale(1,1)"><g><path fill="none" stroke="none"/><text fill="#000000" font-family="Arial" font-size="13px" font-style="normal" font-weight="normal" stroke="none" text-decoration="none" x="674.5" y="688.5">22 : OK</text></g></g><g transform="translate(-182,10) scale(1,1)"><path d="M 581 688 L 285 688" fill="none" stroke="#000000" stroke-dasharray="3" stroke-miterlimit="10"/></g><g transform="translate(-182,10) scale(1,1)"><path d="M 295.16267485762415 683.790482243984 L 285 688 L 295.16267485762415 692.209517756016" fill="none" stroke="#000000" stroke-miterlimit="10"/></g><g transform="translate(-182,10) scale(1,1)"><g><path fill="none" stroke="none"/><text fill="#000000" font-family="Arial" font-size="13px" font-style="normal" font-weight="normal" stroke="none" text-decoration="none" x="299.5" y="704.5">23 : displayRegistrationStatusMsg(statusMsg)</text></g></g><g transform="translate(-182,10) scale(1,1)"><path d="M 240 112 L 1248 112 L 1248 784 L 240 784 L 240 112" fill="none" stroke="#000000" stroke-miterlimit="10"/></g><g transform="translate(-182,10) scale(1,1)"><path d="M 240 112 L 240 134 L 290.68994140625 134 L 301.68994140625 123 L 301.68994140625 112 L 240 112" fill="#ffffff" stroke="none"/></g><g transform="translate(-182,10) scale(1,1)"><path d="M 240 112 L 240 134 L 290.68994140625 134 L 301.68994140625 123 L 301.68994140625 112 L 240 112 L 240 112" fill="none" stroke="#000000" stroke-miterlimit="10"/></g><g transform="translate(-182,10) scale(1,1)"><g><path fill="none" stroke="none"/><text fill="#000000" font-family="Arial" font-size="13px" font-style="normal" font-weight="normal" stroke="none" text-decoration="none" x="264.72998046875" y="129.5">alt1</text></g></g><g transform="translate(-182,10) scale(1,1)"><g><path fill="none" stroke="none"/><text fill="#000000" font-family="Arial" font-size="13px" font-style="normal" font-weight="bold" stroke="none" text-decoration="none" x="245" y="129.5">alt</text></g></g><g transform="translate(-182,10) scale(1,1)"><path d="M 240 545 L 1248 545" fill="none" stroke="#000000" stroke-dasharray="10,3" stroke-miterlimit="10"/></g></g></svg>