<?xml version="1.0" encoding="UTF-8" standalone="no"?><svg xmlns="http://www.w3.org/2000/svg" xmlns:xlink="http://www.w3.org/1999/xlink" height="492" version="1.1" width="1436"><defs/><g><g transform="translate(-174,2) scale(1,1)"><path d="M 184 8 L 1600 8 L 1600 480 L 184 480 L 184 8" fill="none" stroke="#000000" stroke-miterlimit="10"/></g><g transform="translate(-174,2) scale(1,1)"><path d="M 184 8 L 184 30 L 360.41796875 30 L 371.41796875 19 L 371.41796875 8 L 184 8" fill="#ffffff" stroke="none"/></g><g transform="translate(-174,2) scale(1,1)"><path d="M 184 8 L 184 30 L 360.41796875 30 L 371.41796875 19 L 371.41796875 8 L 184 8 L 184 8" fill="none" stroke="#000000" stroke-miterlimit="10"/></g><g transform="translate(-174,2) scale(1,1)"><g><path fill="none" stroke="none"/><text fill="#000000" font-family="Arial" font-size="13px" font-style="normal" font-weight="normal" stroke="none" text-decoration="none" x="254.97900390625" y="25.5">Put Back Product</text></g></g><g transform="translate(-174,2) scale(1,1)"><g><path fill="none" stroke="none"/><text fill="#000000" font-family="Arial" font-size="13px" font-style="normal" font-weight="bold" stroke="none" text-decoration="none" x="189" y="25.5">interaction</text></g></g><g transform="translate(-174,2) scale(1,1)"><path d="M 502.0604110440341 47.3 C 502.0604110440341 43.82060576 504.9388127662159 41 508.489501953125 41 C 512.0401911400342 41 514.918592862216 43.82060576 514.918592862216 47.3 C 514.918592862216 50.779394239999995 512.0401911400342 53.6 508.489501953125 53.6 C 504.9388127662159 53.6 502.0604110440341 50.779394239999995 502.0604110440341 47.3 Z" fill="#ffffff" stroke="none"/></g><g transform="translate(-174,2) scale(1,1)"><path d="M 502.0604110440341 47.3 C 502.0604110440341 43.82060576 504.9388127662159 41 508.489501953125 41 C 512.0401911400342 41 514.918592862216 43.82060576 514.918592862216 47.3 C 514.918592862216 50.779394239999995 512.0401911400342 53.6 508.489501953125 53.6 C 504.9388127662159 53.6 502.0604110440341 50.779394239999995 502.0604110440341 47.3 Z" fill="none" stroke="#000000" stroke-miterlimit="10"/></g><g transform="translate(-174,2) scale(1,1)"><path d="M 508.489501953125 53.6 L 508.489501953125 66.4" fill="none" stroke="#000000" stroke-miterlimit="10"/></g><g transform="translate(-174,2) scale(1,1)"><path d="M 501.68222922585227 58.4 L 515.2967746803978 58.4" fill="none" stroke="#000000" stroke-miterlimit="10"/></g><g transform="translate(-174,2) scale(1,1)"><path d="M 508.489501953125 66.4 L 499.03495649857956 79" fill="none" stroke="#000000" stroke-miterlimit="10"/></g><g transform="translate(-174,2) scale(1,1)"><path d="M 508.489501953125 66.4 L 517.9440474076705 79" fill="none" stroke="#000000" stroke-miterlimit="10"/></g><g transform="translate(-174,2) scale(1,1)"><g><path fill="none" stroke="none"/><text fill="#000000" font-family="Arial" font-size="13px" font-style="normal" font-weight="bold" stroke="none" text-decoration="none" x="456.819580078125" y="99.5">Lifeline1: Sensors</text></g></g><g transform="translate(-174,2) scale(1,1)"><path d="M 509.5 105 L 509.5 480" fill="none" stroke="#000000" stroke-dasharray="3" stroke-miterlimit="10"/></g><g transform="translate(-174,2) scale(1,1)"><path d="M 282.7481551846591 47.3 C 282.7481551846591 43.82060576 285.6265569068409 41 289.17724609375 41 C 292.7279352806591 41 295.606337002841 43.82060576 295.606337002841 47.3 C 295.606337002841 50.779394239999995 292.7279352806591 53.6 289.17724609375 53.6 C 285.6265569068409 53.6 282.7481551846591 50.779394239999995 282.7481551846591 47.3 Z" fill="#ffffff" stroke="none"/></g><g transform="translate(-174,2) scale(1,1)"><path d="M 282.7481551846591 47.3 C 282.7481551846591 43.82060576 285.6265569068409 41 289.17724609375 41 C 292.7279352806591 41 295.606337002841 43.82060576 295.606337002841 47.3 C 295.606337002841 50.779394239999995 292.7279352806591 53.6 289.17724609375 53.6 C 285.6265569068409 53.6 282.7481551846591 50.779394239999995 282.7481551846591 47.3 Z" fill="none" stroke="#000000" stroke-miterlimit="10"/></g><g transform="translate(-174,2) scale(1,1)"><path d="M 289.17724609375 53.6 L 289.17724609375 66.4" fill="none" stroke="#000000" stroke-miterlimit="10"/></g><g transform="translate(-174,2) scale(1,1)"><path d="M 282.36997336647727 58.4 L 295.9845188210228 58.4" fill="none" stroke="#000000" stroke-miterlimit="10"/></g><g transform="translate(-174,2) scale(1,1)"><path d="M 289.17724609375 66.4 L 279.72270063920456 79" fill="none" stroke="#000000" stroke-miterlimit="10"/></g><g transform="translate(-174,2) scale(1,1)"><path d="M 289.17724609375 66.4 L 298.6317915482955 79" fill="none" stroke="#000000" stroke-miterlimit="10"/></g><g transform="translate(-174,2) scale(1,1)"><g><path fill="none" stroke="none"/><text fill="#000000" font-family="Arial" font-size="13px" font-style="normal" font-weight="bold" stroke="none" text-decoration="none" x="233.17822265625" y="99.5">Lifeline2: Customer</text></g></g><g transform="translate(-174,2) scale(1,1)"><path d="M 290.5 105 L 290.5 480" fill="none" stroke="#000000" stroke-dasharray="3" stroke-miterlimit="10"/></g><g transform="translate(-174,2) scale(1,1)"><rect fill="#C0C0C0" height="39" opacity="0.2" stroke="none" width="214.76806640625" x="607" y="47"/></g><g transform="translate(-174,2) scale(1,1)"><rect fill="#ffffff" height="39" stroke="none" width="214.76806640625" x="600" y="40"/></g><g transform="translate(-174,2) scale(1,1)"><path d="M 600 40 L 814.76806640625 40 L 814.76806640625 79 L 600 79 L 600 40 Z Z" fill="none" stroke="#000000" stroke-miterlimit="10"/></g><g transform="translate(-174,2) scale(1,1)"><g><path fill="none" stroke="none"/><text fill="#000000" font-family="Arial" font-size="13px" font-style="normal" font-weight="bold" stroke="none" text-decoration="none" x="616.34912109375" y="59.5">Sensor Communication System</text></g></g><g transform="translate(-174,2) scale(1,1)"><path d="M 708.5 80 L 708.5 480" fill="none" stroke="#000000" stroke-dasharray="3" stroke-miterlimit="10"/></g><g transform="translate(-174,2) scale(1,1)"><rect fill="#C0C0C0" height="39" opacity="0.2" stroke="none" width="128.82080078125" x="1239" y="47"/></g><g transform="translate(-174,2) scale(1,1)"><rect fill="#ffffff" height="39" stroke="none" width="128.82080078125" x="1232" y="40"/></g><g transform="translate(-174,2) scale(1,1)"><path d="M 1232 40 L 1360.82080078125 40 L 1360.82080078125 79 L 1232 79 L 1232 40 Z Z" fill="none" stroke="#000000" stroke-miterlimit="10"/></g><g transform="translate(-174,2) scale(1,1)"><g><path fill="none" stroke="none"/><text fill="#000000" font-family="Arial" font-size="13px" font-style="normal" font-weight="bold" stroke="none" text-decoration="none" x="1244.016845703125" y="59.5">Database Handler</text></g></g><g transform="translate(-174,2) scale(1,1)"><path d="M 1297.5 80 L 1297.5 480" fill="none" stroke="#000000" stroke-dasharray="3" stroke-miterlimit="10"/></g><g transform="translate(-174,2) scale(1,1)"><rect fill="#C0C0C0" height="39" opacity="0.2" stroke="none" width="223.90869140625" x="855" y="47"/></g><g transform="translate(-174,2) scale(1,1)"><rect fill="#ffffff" height="39" stroke="none" width="223.90869140625" x="848" y="40"/></g><g transform="translate(-174,2) scale(1,1)"><path d="M 848 40 L 1071.90869140625 40 L 1071.90869140625 79 L 848 79 L 848 40 Z Z" fill="none" stroke="#000000" stroke-miterlimit="10"/></g><g transform="translate(-174,2) scale(1,1)"><g><path fill="none" stroke="none"/><text fill="#000000" font-family="Arial" font-size="13px" font-style="normal" font-weight="bold" stroke="none" text-decoration="none" x="864.330078125" y="59.5">Computer Vision and AI Analyzer</text></g></g><g transform="translate(-174,2) scale(1,1)"><path d="M 960.5 80 L 960.5 480" fill="none" stroke="#000000" stroke-dasharray="3" stroke-miterlimit="10"/></g><g transform="translate(-174,2) scale(1,1)"><path d="M 290 120 L 502 120" fill="none" stroke="#000000" stroke-miterlimit="10"/></g><g transform="translate(-174,2) scale(1,1)"><path d="M 491.83732514237585 124.20951775601598 L 502 120 L 491.83732514237585 115.79048224398402" fill="#000000" stroke="none"/></g><g transform="translate(-174,2) scale(1,1)"><path d="M 491.83732514237585 124.20951775601598 L 502 120 L 491.83732514237585 115.79048224398402 L 491.83732514237585 124.20951775601598" fill="none" stroke="#000000" stroke-miterlimit="10"/></g><g transform="translate(-174,2) scale(1,1)"><g><path fill="none" stroke="none"/><text fill="#000000" font-family="Arial" font-size="13px" font-style="normal" font-weight="normal" stroke="none" text-decoration="none" x="328.5" y="116.5">1 : puts product to shelf</text></g></g><g transform="translate(-174,2) scale(1,1)"><rect fill="#ffffff" height="96" stroke="none" width="13" x="502" y="120"/></g><g transform="translate(-174,2) scale(1,1)"><path d="M 502 120 L 515 120 L 515 216 L 502 216 L 502 120 Z Z" fill="none" stroke="#000000" stroke-miterlimit="10"/></g><g transform="translate(-174,2) scale(1,1)"><path d="M 515 128 L 701 128" fill="none" stroke="#000000" stroke-miterlimit="10"/></g><g transform="translate(-174,2) scale(1,1)"><path d="M 690.8373251423759 132.209517756016 L 701 128 L 690.8373251423758 123.79048224398402" fill="#000000" stroke="none"/></g><g transform="translate(-174,2) scale(1,1)"><path d="M 690.8373251423759 132.209517756016 L 701 128 L 690.8373251423758 123.79048224398402 L 690.8373251423759 132.209517756016" fill="none" stroke="#000000" stroke-miterlimit="10"/></g><g transform="translate(-174,2) scale(1,1)"><g><path fill="none" stroke="none"/><text fill="#000000" font-family="Arial" font-size="13px" font-style="normal" font-weight="normal" stroke="none" text-decoration="none" x="543.30908203125" y="124.5">2 : postRawData(void)</text></g></g><g transform="translate(-174,2) scale(1,1)"><rect fill="#ffffff" height="28" stroke="none" width="13" x="701" y="128"/></g><g transform="translate(-174,2) scale(1,1)"><path d="M 701 128 L 714 128 L 714 156 L 701 156 L 701 128 Z Z" fill="none" stroke="#000000" stroke-miterlimit="10"/></g><g transform="translate(-174,2) scale(1,1)"><path d="M 714 147 L 953 147" fill="none" stroke="#000000" stroke-miterlimit="10"/></g><g transform="translate(-174,2) scale(1,1)"><path d="M 942.8373251423759 151.209517756016 L 953 147 L 942.8373251423758 142.790482243984" fill="#000000" stroke="none"/></g><g transform="translate(-174,2) scale(1,1)"><path d="M 942.8373251423759 151.209517756016 L 953 147 L 942.8373251423758 142.790482243984 L 942.8373251423759 151.209517756016" fill="none" stroke="#000000" stroke-miterlimit="10"/></g><g transform="translate(-174,2) scale(1,1)"><g><path fill="none" stroke="none"/><text fill="#000000" font-family="Arial" font-size="13px" font-style="normal" font-weight="normal" stroke="none" text-decoration="none" x="766.5" y="143.5">3 : sendRawData(void)</text></g></g><g transform="translate(-174,2) scale(1,1)"><rect fill="#ffffff" height="269" stroke="none" width="13" x="953" y="147"/></g><g transform="translate(-174,2) scale(1,1)"><path d="M 953 147 L 966 147 L 966 416 L 953 416 L 953 147 Z Z" fill="none" stroke="#000000" stroke-miterlimit="10"/></g><g transform="translate(-174,2) scale(1,1)"><path d="M 966 160 L 996 160 L 996 180 L 973 180" fill="none" stroke="#000000" stroke-miterlimit="10"/></g><g transform="translate(-174,2) scale(1,1)"><path d="M 983.1626748576241 175.790482243984 L 973 180 L 983.1626748576241 184.209517756016" fill="#000000" stroke="none"/></g><g transform="translate(-174,2) scale(1,1)"><path d="M 983.1626748576241 175.790482243984 L 973 180 L 983.1626748576241 184.209517756016 L 983.1626748576241 175.790482243984" fill="none" stroke="#000000" stroke-miterlimit="10"/></g><g transform="translate(-174,2) scale(1,1)"><g><path fill="none" stroke="none"/><text fill="#000000" font-family="Arial" font-size="13px" font-style="normal" font-weight="normal" stroke="none" text-decoration="none" x="967.5" y="156.5">4 : processData(rawSensorData)</text></g></g><g transform="translate(-174,2) scale(1,1)"><rect fill="#ffffff" height="28" stroke="none" width="13" x="960" y="180"/></g><g transform="translate(-174,2) scale(1,1)"><path d="M 960 180 L 973 180 L 973 208 L 960 208 L 960 180 Z Z" fill="none" stroke="#000000" stroke-miterlimit="10"/></g><g transform="translate(-174,2) scale(1,1)"><path d="M 973 192 L 1290 192" fill="none" stroke="#000000" stroke-miterlimit="10"/></g><g transform="translate(-174,2) scale(1,1)"><path d="M 1279.837325142376 196.209517756016 L 1290 192 L 1279.837325142376 187.790482243984" fill="#000000" stroke="none"/></g><g transform="translate(-174,2) scale(1,1)"><path d="M 1279.837325142376 196.209517756016 L 1290 192 L 1279.837325142376 187.790482243984 L 1279.837325142376 196.209517756016" fill="none" stroke="#000000" stroke-miterlimit="10"/></g><g transform="translate(-174,2) scale(1,1)"><g><path fill="none" stroke="none"/><text fill="#000000" font-family="Arial" font-size="13px" font-style="normal" font-weight="normal" stroke="none" text-decoration="none" x="1047.5" y="211.5">5 : sendProcessedData(void)</text></g></g><g transform="translate(-174,2) scale(1,1)"><rect fill="#ffffff" height="28" stroke="none" width="13" x="1290" y="192"/></g><g transform="translate(-174,2) scale(1,1)"><path d="M 1290 192 L 1303 192 L 1303 220 L 1290 220 L 1290 192 Z Z" fill="none" stroke="#000000" stroke-miterlimit="10"/></g><g transform="translate(-174,2) scale(1,1)"><path d="M 1303 200 L 1333 200 L 1333 220 L 1310 220" fill="none" stroke="#000000" stroke-miterlimit="10"/></g><g transform="translate(-174,2) scale(1,1)"><path d="M 1320.162674857624 215.790482243984 L 1310 220 L 1320.162674857624 224.209517756016" fill="#000000" stroke="none"/></g><g transform="translate(-174,2) scale(1,1)"><path d="M 1320.162674857624 215.790482243984 L 1310 220 L 1320.162674857624 224.209517756016 L 1320.162674857624 215.790482243984" fill="none" stroke="#000000" stroke-miterlimit="10"/></g><g transform="translate(-174,2) scale(1,1)"><g><path fill="none" stroke="none"/><text fill="#000000" font-family="Arial" font-size="13px" font-style="normal" font-weight="normal" stroke="none" text-decoration="none" x="1302.5" y="196.5">6 : addRecordToTable(logTable, processedData)</text></g></g><g transform="translate(-174,2) scale(1,1)"><rect fill="#ffffff" height="28" stroke="none" width="13" x="1297" y="220"/></g><g transform="translate(-174,2) scale(1,1)"><path d="M 1297 220 L 1310 220 L 1310 248 L 1297 248 L 1297 220 Z Z" fill="none" stroke="#000000" stroke-miterlimit="10"/></g><g transform="translate(-174,2) scale(1,1)"><path d="M 1297 232 L 966 232" fill="none" stroke="#000000" stroke-dasharray="3" stroke-miterlimit="10"/></g><g transform="translate(-174,2) scale(1,1)"><path d="M 976.1626748576241 227.790482243984 L 966 232 L 976.1626748576241 236.209517756016" fill="none" stroke="#000000" stroke-miterlimit="10"/></g><g transform="translate(-174,2) scale(1,1)"><g><path fill="none" stroke="none"/><text fill="#000000" font-family="Arial" font-size="13px" font-style="normal" font-weight="normal" stroke="none" text-decoration="none" x="1111.5" y="248.5">7 : OK</text></g></g><g transform="translate(-174,2) scale(1,1)"><path d="M 966 256 L 996 256 L 996 276 L 973 276" fill="none" stroke="#000000" stroke-miterlimit="10"/></g><g transform="translate(-174,2) scale(1,1)"><path d="M 983.1626748576241 271.790482243984 L 973 276 L 983.1626748576241 280.209517756016" fill="#000000" stroke="none"/></g><g transform="translate(-174,2) scale(1,1)"><path d="M 983.1626748576241 271.790482243984 L 973 276 L 983.1626748576241 280.209517756016 L 983.1626748576241 271.790482243984" fill="none" stroke="#000000" stroke-miterlimit="10"/></g><g transform="translate(-174,2) scale(1,1)"><g><path fill="none" stroke="none"/><text fill="#000000" font-family="Arial" font-size="13px" font-style="normal" font-weight="normal" stroke="none" text-decoration="none" x="973.5" y="292.5">8 : isDeletion = true</text></g></g><g transform="translate(-174,2) scale(1,1)"><rect fill="#ffffff" height="28" stroke="none" width="13" x="960" y="276"/></g><g transform="translate(-174,2) scale(1,1)"><path d="M 960 276 L 973 276 L 973 304 L 960 304 L 960 276 Z Z" fill="none" stroke="#000000" stroke-miterlimit="10"/></g><g transform="translate(-174,2) scale(1,1)"><path d="M 966 328 L 1290 328" fill="none" stroke="#000000" stroke-miterlimit="10"/></g><g transform="translate(-174,2) scale(1,1)"><path d="M 1279.837325142376 332.209517756016 L 1290 328 L 1279.837325142376 323.790482243984" fill="#000000" stroke="none"/></g><g transform="translate(-174,2) scale(1,1)"><path d="M 1279.837325142376 332.209517756016 L 1290 328 L 1279.837325142376 323.790482243984 L 1279.837325142376 332.209517756016" fill="none" stroke="#000000" stroke-miterlimit="10"/></g><g transform="translate(-174,2) scale(1,1)"><g><path fill="none" stroke="none"/><text fill="#000000" font-family="Arial" font-size="13px" font-style="normal" font-weight="normal" stroke="none" text-decoration="none" x="979.5" y="324.5">9 : deleteRecordFromTable(cartTable, productData)</text></g></g><g transform="translate(-174,2) scale(1,1)"><rect fill="#ffffff" height="40" stroke="none" width="13" x="1290" y="328"/></g><g transform="translate(-174,2) scale(1,1)"><path d="M 1290 328 L 1303 328 L 1303 368 L 1290 368 L 1290 328 Z Z" fill="none" stroke="#000000" stroke-miterlimit="10"/></g><g transform="translate(-174,2) scale(1,1)"><path d="M 1290 348 L 966 348" fill="none" stroke="#000000" stroke-dasharray="3" stroke-miterlimit="10"/></g><g transform="translate(-174,2) scale(1,1)"><path d="M 976.1626748576241 343.790482243984 L 966 348 L 976.1626748576241 352.209517756016" fill="none" stroke="#000000" stroke-miterlimit="10"/></g><g transform="translate(-174,2) scale(1,1)"><g><path fill="none" stroke="none"/><text fill="#000000" font-family="Arial" font-size="13px" font-style="normal" font-weight="normal" stroke="none" text-decoration="none" x="1104.5" y="364.5">10 : OK</text></g></g><g transform="translate(-174,2) scale(1,1)"><path d="M 953 368 L 708 368" fill="none" stroke="#000000" stroke-dasharray="3" stroke-miterlimit="10"/></g><g transform="translate(-174,2) scale(1,1)"><path d="M 718.1626748576241 363.790482243984 L 708 368 L 718.1626748576241 372.209517756016" fill="none" stroke="#000000" stroke-miterlimit="10"/></g><g transform="translate(-174,2) scale(1,1)"><g><path fill="none" stroke="none"/><text fill="#000000" font-family="Arial" font-size="13px" font-style="normal" font-weight="normal" stroke="none" text-decoration="none" x="769.5" y="384.5">11 : isDeletion = true</text></g></g></g></svg>