<?xml version="1.0" encoding="UTF-8" standalone="no"?><svg xmlns="http://www.w3.org/2000/svg" xmlns:xlink="http://www.w3.org/1999/xlink" height="796" version="1.1" width="1108"><defs/><g><g transform="translate(-158,10) scale(1,1)"><path d="M 168 0 L 1256 0 L 1256 776 L 168 776 L 168 0" fill="none" stroke="#000000" stroke-miterlimit="10"/></g><g transform="translate(-158,10) scale(1,1)"><path d="M 168 0 L 168 22 L 366.83154296875 22 L 377.83154296875 11 L 377.83154296875 0 L 168 0" fill="#ffffff" stroke="none"/></g><g transform="translate(-158,10) scale(1,1)"><path d="M 168 0 L 168 22 L 366.83154296875 22 L 377.83154296875 11 L 377.83154296875 0 L 168 0 L 168 0" fill="none" stroke="#000000" stroke-miterlimit="10"/></g><g transform="translate(-158,10) scale(1,1)"><g><path fill="none" stroke="none"/><text fill="#000000" font-family="Arial" font-size="13px" font-style="normal" font-weight="normal" stroke="none" text-decoration="none" x="238.97900390625" y="17.5">Scan Login QR Code</text></g></g><g transform="translate(-158,10) scale(1,1)"><g><path fill="none" stroke="none"/><text fill="#000000" font-family="Arial" font-size="13px" font-style="normal" font-weight="bold" stroke="none" text-decoration="none" x="173" y="17.5">interaction</text></g></g><g transform="translate(-158,10) scale(1,1)"><path d="M 279.1331649502841 47.3 C 279.1331649502841 43.82060576 282.0115666724659 41 285.562255859375 41 C 289.1129450462841 41 291.991346768466 43.82060576 291.991346768466 47.3 C 291.991346768466 50.779394239999995 289.1129450462841 53.6 285.562255859375 53.6 C 282.0115666724659 53.6 279.1331649502841 50.779394239999995 279.1331649502841 47.3 Z" fill="#ffffff" stroke="none"/></g><g transform="translate(-158,10) scale(1,1)"><path d="M 279.1331649502841 47.3 C 279.1331649502841 43.82060576 282.0115666724659 41 285.562255859375 41 C 289.1129450462841 41 291.991346768466 43.82060576 291.991346768466 47.3 C 291.991346768466 50.779394239999995 289.1129450462841 53.6 285.562255859375 53.6 C 282.0115666724659 53.6 279.1331649502841 50.779394239999995 279.1331649502841 47.3 Z" fill="none" stroke="#000000" stroke-miterlimit="10"/></g><g transform="translate(-158,10) scale(1,1)"><path d="M 285.562255859375 53.6 L 285.562255859375 66.4" fill="none" stroke="#000000" stroke-miterlimit="10"/></g><g transform="translate(-158,10) scale(1,1)"><path d="M 278.75498313210227 58.4 L 292.3695285866478 58.4" fill="none" stroke="#000000" stroke-miterlimit="10"/></g><g transform="translate(-158,10) scale(1,1)"><path d="M 285.562255859375 66.4 L 276.10771040482956 79" fill="none" stroke="#000000" stroke-miterlimit="10"/></g><g transform="translate(-158,10) scale(1,1)"><path d="M 285.562255859375 66.4 L 295.0168013139205 79" fill="none" stroke="#000000" stroke-miterlimit="10"/></g><g transform="translate(-158,10) scale(1,1)"><g><path fill="none" stroke="none"/><text fill="#000000" font-family="Arial" font-size="13px" font-style="normal" font-weight="bold" stroke="none" text-decoration="none" x="233.17822265625" y="99.5">Lifeline: Customer</text></g></g><g transform="translate(-158,10) scale(1,1)"><path d="M 286.5 105 L 286.5 776" fill="none" stroke="#000000" stroke-dasharray="3" stroke-miterlimit="10"/></g><g transform="translate(-158,10) scale(1,1)"><rect fill="#C0C0C0" height="39" opacity="0.2" stroke="none" width="128.82080078125" x="1055" y="47"/></g><g transform="translate(-158,10) scale(1,1)"><rect fill="#ffffff" height="39" stroke="none" width="128.82080078125" x="1048" y="40"/></g><g transform="translate(-158,10) scale(1,1)"><path d="M 1048 40 L 1176.82080078125 40 L 1176.82080078125 79 L 1048 79 L 1048 40 Z Z" fill="none" stroke="#000000" stroke-miterlimit="10"/></g><g transform="translate(-158,10) scale(1,1)"><g><path fill="none" stroke="none"/><text fill="#000000" font-family="Arial" font-size="13px" font-style="normal" font-weight="bold" stroke="none" text-decoration="none" x="1060.016845703125" y="59.5">Database Handler</text></g></g><g transform="translate(-158,10) scale(1,1)"><path d="M 1113.5 80 L 1113.5 776" fill="none" stroke="#000000" stroke-dasharray="3" stroke-miterlimit="10"/></g><g transform="translate(-158,10) scale(1,1)"><rect fill="#C0C0C0" height="39" opacity="0.2" stroke="none" width="216.919921875" x="495" y="47"/></g><g transform="translate(-158,10) scale(1,1)"><rect fill="#ffffff" height="39" stroke="none" width="216.919921875" x="488" y="40"/></g><g transform="translate(-158,10) scale(1,1)"><path d="M 488 40 L 704.919921875 40 L 704.919921875 79 L 488 79 L 488 40 Z Z" fill="none" stroke="#000000" stroke-miterlimit="10"/></g><g transform="translate(-158,10) scale(1,1)"><g><path fill="none" stroke="none"/><text fill="#000000" font-family="Arial" font-size="13px" font-style="normal" font-weight="bold" stroke="none" text-decoration="none" x="504.333251953125" y="59.5">Sensor Communication Handler</text></g></g><g transform="translate(-158,10) scale(1,1)"><path d="M 597.5 80 L 597.5 776" fill="none" stroke="#000000" stroke-dasharray="3" stroke-miterlimit="10"/></g><g transform="translate(-158,10) scale(1,1)"><rect fill="#C0C0C0" height="39" opacity="0.2" stroke="none" width="182.96630859375" x="799" y="47"/></g><g transform="translate(-158,10) scale(1,1)"><rect fill="#ffffff" height="39" stroke="none" width="182.96630859375" x="792" y="40"/></g><g transform="translate(-158,10) scale(1,1)"><path d="M 792 40 L 974.96630859375 40 L 974.96630859375 79 L 792 79 L 792 40 Z Z" fill="none" stroke="#000000" stroke-miterlimit="10"/></g><g transform="translate(-158,10) scale(1,1)"><g><path fill="none" stroke="none"/><text fill="#000000" font-family="Arial" font-size="13px" font-style="normal" font-weight="bold" stroke="none" text-decoration="none" x="807.254150390625" y="59.5">QR Authentication System</text></g></g><g transform="translate(-158,10) scale(1,1)"><path d="M 884.5 80 L 884.5 776" fill="none" stroke="#000000" stroke-dasharray="3" stroke-miterlimit="10"/></g><g transform="translate(-158,10) scale(1,1)"><path d="M 286 177 L 590 177" fill="none" stroke="#000000" stroke-miterlimit="10"/></g><g transform="translate(-158,10) scale(1,1)"><path d="M 579.8373251423759 181.209517756016 L 590 177 L 579.8373251423758 172.790482243984" fill="#000000" stroke="none"/></g><g transform="translate(-158,10) scale(1,1)"><path d="M 579.8373251423759 181.209517756016 L 590 177 L 579.8373251423758 172.790482243984 L 579.8373251423759 181.209517756016" fill="none" stroke="#000000" stroke-miterlimit="10"/></g><g transform="translate(-158,10) scale(1,1)"><g><path fill="none" stroke="none"/><text fill="#000000" font-family="Arial" font-size="13px" font-style="normal" font-weight="normal" stroke="none" text-decoration="none" x="360.5" y="173.5">1 : scanQRCode(QRCode)</text></g></g><g transform="translate(-158,10) scale(1,1)"><rect fill="#ffffff" height="567" stroke="none" width="13" x="590" y="177"/></g><g transform="translate(-158,10) scale(1,1)"><path d="M 590 177 L 603 177 L 603 744 L 590 744 L 590 177 Z Z" fill="none" stroke="#000000" stroke-miterlimit="10"/></g><g transform="translate(-158,10) scale(1,1)"><path d="M 603 200 L 877 200" fill="none" stroke="#000000" stroke-miterlimit="10"/></g><g transform="translate(-158,10) scale(1,1)"><path d="M 866.8373251423759 204.209517756016 L 877 200 L 866.8373251423758 195.790482243984" fill="#000000" stroke="none"/></g><g transform="translate(-158,10) scale(1,1)"><path d="M 866.8373251423759 204.209517756016 L 877 200 L 866.8373251423758 195.790482243984 L 866.8373251423759 204.209517756016" fill="none" stroke="#000000" stroke-miterlimit="10"/></g><g transform="translate(-158,10) scale(1,1)"><g><path fill="none" stroke="none"/><text fill="#000000" font-family="Arial" font-size="13px" font-style="normal" font-weight="normal" stroke="none" text-decoration="none" x="643.5" y="196.5">2 : checkValidation(decryptedQR)</text></g></g><g transform="translate(-158,10) scale(1,1)"><rect fill="#ffffff" height="360" stroke="none" width="13" x="877" y="200"/></g><g transform="translate(-158,10) scale(1,1)"><path d="M 877 200 L 890 200 L 890 560 L 877 560 L 877 200 Z Z" fill="none" stroke="#000000" stroke-miterlimit="10"/></g><g transform="translate(-158,10) scale(1,1)"><path d="M 890 221 L 1106 221" fill="none" stroke="#000000" stroke-miterlimit="10"/></g><g transform="translate(-158,10) scale(1,1)"><path d="M 1095.837325142376 225.209517756016 L 1106 221 L 1095.837325142376 216.790482243984" fill="#000000" stroke="none"/></g><g transform="translate(-158,10) scale(1,1)"><path d="M 1095.837325142376 225.209517756016 L 1106 221 L 1095.837325142376 216.790482243984 L 1095.837325142376 225.209517756016" fill="none" stroke="#000000" stroke-miterlimit="10"/></g><g transform="translate(-158,10) scale(1,1)"><g><path fill="none" stroke="none"/><text fill="#000000" font-family="Arial" font-size="13px" font-style="normal" font-weight="normal" stroke="none" text-decoration="none" x="900.5" y="217.5">3 : getCustomerData(customerID)</text></g></g><g transform="translate(-158,10) scale(1,1)"><rect fill="#ffffff" height="28" stroke="none" width="13" x="1106" y="221"/></g><g transform="translate(-158,10) scale(1,1)"><path d="M 1106 221 L 1119 221 L 1119 249 L 1106 249 L 1106 221 Z Z" fill="none" stroke="#000000" stroke-miterlimit="10"/></g><g transform="translate(-158,10) scale(1,1)"><path d="M 1106 240 L 890 240" fill="none" stroke="#000000" stroke-dasharray="3" stroke-miterlimit="10"/></g><g transform="translate(-158,10) scale(1,1)"><path d="M 900.1626748576241 235.790482243984 L 890 240 L 900.1626748576241 244.209517756016" fill="none" stroke="#000000" stroke-miterlimit="10"/></g><g transform="translate(-158,10) scale(1,1)"><g><path fill="none" stroke="none"/><text fill="#000000" font-family="Arial" font-size="13px" font-style="normal" font-weight="normal" stroke="none" text-decoration="none" x="946.5" y="256.5">4 : customer data</text></g></g><g transform="translate(-158,10) scale(1,1)"><path d="M 890 296 L 1106 296" fill="none" stroke="#000000" stroke-miterlimit="10"/></g><g transform="translate(-158,10) scale(1,1)"><path d="M 1095.837325142376 300.209517756016 L 1106 296 L 1095.837325142376 291.790482243984" fill="#000000" stroke="none"/></g><g transform="translate(-158,10) scale(1,1)"><path d="M 1095.837325142376 300.209517756016 L 1106 296 L 1095.837325142376 291.790482243984 L 1095.837325142376 300.209517756016" fill="none" stroke="#000000" stroke-miterlimit="10"/></g><g transform="translate(-158,10) scale(1,1)"><g><path fill="none" stroke="none"/><text fill="#000000" font-family="Arial" font-size="13px" font-style="normal" font-weight="normal" stroke="none" text-decoration="none" x="924.5" y="290.5">5 : getStoreData(storeID)</text></g></g><g transform="translate(-158,10) scale(1,1)"><rect fill="#ffffff" height="28" stroke="none" width="13" x="1106" y="296"/></g><g transform="translate(-158,10) scale(1,1)"><path d="M 1106 296 L 1119 296 L 1119 324 L 1106 324 L 1106 296 Z Z" fill="none" stroke="#000000" stroke-miterlimit="10"/></g><g transform="translate(-158,10) scale(1,1)"><path d="M 1106 312 L 890 312" fill="none" stroke="#000000" stroke-dasharray="3" stroke-miterlimit="10"/></g><g transform="translate(-158,10) scale(1,1)"><path d="M 900.1626748576241 307.790482243984 L 890 312 L 900.1626748576241 316.209517756016" fill="none" stroke="#000000" stroke-miterlimit="10"/></g><g transform="translate(-158,10) scale(1,1)"><g><path fill="none" stroke="none"/><text fill="#000000" font-family="Arial" font-size="13px" font-style="normal" font-weight="normal" stroke="none" text-decoration="none" x="959.5" y="328.5">6 : store data</text></g></g><g transform="translate(-158,10) scale(1,1)"><path d="M 877 352 L 603 352" fill="none" stroke="#000000" stroke-dasharray="3" stroke-miterlimit="10"/></g><g transform="translate(-158,10) scale(1,1)"><path d="M 613.1626748576241 347.790482243984 L 603 352 L 613.1626748576241 356.209517756016" fill="none" stroke="#000000" stroke-miterlimit="10"/></g><g transform="translate(-158,10) scale(1,1)"><g><path fill="none" stroke="none"/><text fill="#000000" font-family="Arial" font-size="13px" font-style="normal" font-weight="normal" stroke="none" text-decoration="none" x="703.5" y="368.5">7 : validated</text></g></g><g transform="translate(-158,10) scale(1,1)"><path d="M 603 408 L 633 408 L 633 428 L 610 428" fill="none" stroke="#000000" stroke-miterlimit="10"/></g><g transform="translate(-158,10) scale(1,1)"><path d="M 620.1626748576241 423.790482243984 L 610 428 L 620.1626748576241 432.209517756016" fill="#000000" stroke="none"/></g><g transform="translate(-158,10) scale(1,1)"><path d="M 620.1626748576241 423.790482243984 L 610 428 L 620.1626748576241 432.209517756016 L 620.1626748576241 423.790482243984" fill="none" stroke="#000000" stroke-miterlimit="10"/></g><g transform="translate(-158,10) scale(1,1)"><g><path fill="none" stroke="none"/><text fill="#000000" font-family="Arial" font-size="13px" font-style="normal" font-weight="normal" stroke="none" text-decoration="none" x="637.5" y="428.5">8 : stimulateTurnstile(sensorID)</text></g></g><g transform="translate(-158,10) scale(1,1)"><rect fill="#ffffff" height="28" stroke="none" width="13" x="597" y="428"/></g><g transform="translate(-158,10) scale(1,1)"><path d="M 597 428 L 610 428 L 610 456 L 597 456 L 597 428 Z Z" fill="none" stroke="#000000" stroke-miterlimit="10"/></g><g transform="translate(-158,10) scale(1,1)"><path d="M 590 472 L 286 472" fill="none" stroke="#000000" stroke-dasharray="3" stroke-miterlimit="10"/></g><g transform="translate(-158,10) scale(1,1)"><path d="M 296.16267485762415 467.790482243984 L 286 472 L 296.16267485762415 476.209517756016" fill="none" stroke="#000000" stroke-miterlimit="10"/></g><g transform="translate(-158,10) scale(1,1)"><g><path fill="none" stroke="none"/><text fill="#000000" font-family="Arial" font-size="13px" font-style="normal" font-weight="normal" stroke="none" text-decoration="none" x="383.5" y="488.5">9 : access granted</text></g></g><g transform="translate(-158,10) scale(1,1)"><path d="M 877 550 L 603 550" fill="none" stroke="#000000" stroke-dasharray="3" stroke-miterlimit="10"/></g><g transform="translate(-158,10) scale(1,1)"><path d="M 613.1626748576241 545.790482243984 L 603 550 L 613.1626748576241 554.209517756016" fill="none" stroke="#000000" stroke-miterlimit="10"/></g><g transform="translate(-158,10) scale(1,1)"><g><path fill="none" stroke="none"/><text fill="#000000" font-family="Arial" font-size="13px" font-style="normal" font-weight="normal" stroke="none" text-decoration="none" x="679.5" y="566.5">10 : validation failure</text></g></g><g transform="translate(-158,10) scale(1,1)"><path d="M 603 592 L 633 592 L 633 612 L 610 612" fill="none" stroke="#000000" stroke-miterlimit="10"/></g><g transform="translate(-158,10) scale(1,1)"><path d="M 620.1626748576241 607.790482243984 L 610 612 L 620.1626748576241 616.209517756016" fill="#000000" stroke="none"/></g><g transform="translate(-158,10) scale(1,1)"><path d="M 620.1626748576241 607.790482243984 L 610 612 L 620.1626748576241 616.209517756016 L 620.1626748576241 607.790482243984" fill="none" stroke="#000000" stroke-miterlimit="10"/></g><g transform="translate(-158,10) scale(1,1)"><g><path fill="none" stroke="none"/><text fill="#000000" font-family="Arial" font-size="13px" font-style="normal" font-weight="normal" stroke="none" text-decoration="none" x="614.5" y="636.5">11 : displayErrorTurnstile(sensorID, failData)</text></g></g><g transform="translate(-158,10) scale(1,1)"><rect fill="#ffffff" height="28" stroke="none" width="13" x="597" y="612"/></g><g transform="translate(-158,10) scale(1,1)"><path d="M 597 612 L 610 612 L 610 640 L 597 640 L 597 612 Z Z" fill="none" stroke="#000000" stroke-miterlimit="10"/></g><g transform="translate(-158,10) scale(1,1)"><path d="M 603 680 L 633 680 L 633 700 L 610 700" fill="none" stroke="#000000" stroke-miterlimit="10"/></g><g transform="translate(-158,10) scale(1,1)"><path d="M 620.1626748576241 695.790482243984 L 610 700 L 620.1626748576241 704.209517756016" fill="#000000" stroke="none"/></g><g transform="translate(-158,10) scale(1,1)"><path d="M 620.1626748576241 695.790482243984 L 610 700 L 620.1626748576241 704.209517756016 L 620.1626748576241 695.790482243984" fill="none" stroke="#000000" stroke-miterlimit="10"/></g><g transform="translate(-158,10) scale(1,1)"><g><path fill="none" stroke="none"/><text fill="#000000" font-family="Arial" font-size="13px" font-style="normal" font-weight="normal" stroke="none" text-decoration="none" x="614.5" y="724.5">12 : sendQRScanFailureToServer(failData)</text></g></g><g transform="translate(-158,10) scale(1,1)"><rect fill="#ffffff" height="28" stroke="none" width="13" x="597" y="700"/></g><g transform="translate(-158,10) scale(1,1)"><path d="M 597 700 L 610 700 L 610 728 L 597 728 L 597 700 Z Z" fill="none" stroke="#000000" stroke-miterlimit="10"/></g><g transform="translate(-158,10) scale(1,1)"><path d="M 192 328 L 1216 328 L 1216 656 L 192 656 L 192 328" fill="none" stroke="#000000" stroke-miterlimit="10"/></g><g transform="translate(-158,10) scale(1,1)"><path d="M 192 328 L 192 350 L 228.9599609375 350 L 239.9599609375 339 L 239.9599609375 328 L 192 328" fill="#ffffff" stroke="none"/></g><g transform="translate(-158,10) scale(1,1)"><path d="M 192 328 L 192 350 L 228.9599609375 350 L 239.9599609375 339 L 239.9599609375 328 L 192 328 L 192 328" fill="none" stroke="#000000" stroke-miterlimit="10"/></g><g transform="translate(-158,10) scale(1,1)"><g><path fill="none" stroke="none"/><text fill="#000000" font-family="Arial" font-size="13px" font-style="normal" font-weight="normal" stroke="none" text-decoration="none" x="216.72998046875" y="345.5">1</text></g></g><g transform="translate(-158,10) scale(1,1)"><g><path fill="none" stroke="none"/><text fill="#000000" font-family="Arial" font-size="13px" font-style="normal" font-weight="bold" stroke="none" text-decoration="none" x="197" y="345.5">alt</text></g></g><g transform="translate(-158,10) scale(1,1)"><path d="M 192 521 L 1216 521" fill="none" stroke="#000000" stroke-dasharray="10,3" stroke-miterlimit="10"/></g></g></svg>