<?xml version="1.0" encoding="UTF-8" standalone="no"?><svg xmlns="http://www.w3.org/2000/svg" xmlns:xlink="http://www.w3.org/1999/xlink" height="956" version="1.1" width="1228"><defs/><g><g transform="translate(-174,10) scale(1,1)"><path d="M 184 0 L 1392 0 L 1392 936 L 184 936 L 184 0" fill="none" stroke="#000000" stroke-miterlimit="10"/></g><g transform="translate(-174,10) scale(1,1)"><path d="M 184 0 L 184 22 L 356.787109375 22 L 367.787109375 11 L 367.787109375 0 L 184 0" fill="#ffffff" stroke="none"/></g><g transform="translate(-174,10) scale(1,1)"><path d="M 184 0 L 184 22 L 356.787109375 22 L 367.787109375 11 L 367.787109375 0 L 184 0 L 184 0" fill="none" stroke="#000000" stroke-miterlimit="10"/></g><g transform="translate(-174,10) scale(1,1)"><g><path fill="none" stroke="none"/><text fill="#000000" font-family="Arial" font-size="13px" font-style="normal" font-weight="normal" stroke="none" text-decoration="none" x="254.97900390625" y="17.5">Withdraw Money</text></g></g><g transform="translate(-174,10) scale(1,1)"><g><path fill="none" stroke="none"/><text fill="#000000" font-family="Arial" font-size="13px" font-style="normal" font-weight="bold" stroke="none" text-decoration="none" x="189" y="17.5">interaction</text></g></g><g transform="translate(-174,10) scale(1,1)"><rect fill="#C0C0C0" height="39" opacity="0.2" stroke="none" width="128.82080078125" x="1239" y="47"/></g><g transform="translate(-174,10) scale(1,1)"><rect fill="#ffffff" height="39" stroke="none" width="128.82080078125" x="1232" y="40"/></g><g transform="translate(-174,10) scale(1,1)"><path d="M 1232 40 L 1360.82080078125 40 L 1360.82080078125 79 L 1232 79 L 1232 40 Z Z" fill="none" stroke="#000000" stroke-miterlimit="10"/></g><g transform="translate(-174,10) scale(1,1)"><g><path fill="none" stroke="none"/><text fill="#000000" font-family="Arial" font-size="13px" font-style="normal" font-weight="bold" stroke="none" text-decoration="none" x="1244.016845703125" y="59.5">Database Handler</text></g></g><g transform="translate(-174,10) scale(1,1)"><path d="M 1297.5 80 L 1297.5 936" fill="none" stroke="#000000" stroke-dasharray="3" stroke-miterlimit="10"/></g><g transform="translate(-174,10) scale(1,1)"><rect fill="#C0C0C0" height="39" opacity="0.2" stroke="none" width="125.20263671875" x="903" y="47"/></g><g transform="translate(-174,10) scale(1,1)"><rect fill="#ffffff" height="39" stroke="none" width="125.20263671875" x="896" y="40"/></g><g transform="translate(-174,10) scale(1,1)"><path d="M 896 40 L 1021.20263671875 40 L 1021.20263671875 79 L 896 79 L 896 40 Z Z" fill="none" stroke="#000000" stroke-miterlimit="10"/></g><g transform="translate(-174,10) scale(1,1)"><g><path fill="none" stroke="none"/><text fill="#000000" font-family="Arial" font-size="13px" font-style="normal" font-weight="bold" stroke="none" text-decoration="none" x="908.3818359375" y="59.5">Payment Handler</text></g></g><g transform="translate(-174,10) scale(1,1)"><path d="M 959.5 80 L 959.5 936" fill="none" stroke="#000000" stroke-dasharray="3" stroke-miterlimit="10"/></g><g transform="translate(-174,10) scale(1,1)"><path d="M 278.1858993252841 47.3 C 278.1858993252841 43.82060576 281.0643010474659 41 284.614990234375 41 C 288.1656794212841 41 291.044081143466 43.82060576 291.044081143466 47.3 C 291.044081143466 50.779394239999995 288.1656794212841 53.6 284.614990234375 53.6 C 281.0643010474659 53.6 278.1858993252841 50.779394239999995 278.1858993252841 47.3 Z" fill="#ffffff" stroke="none"/></g><g transform="translate(-174,10) scale(1,1)"><path d="M 278.1858993252841 47.3 C 278.1858993252841 43.82060576 281.0643010474659 41 284.614990234375 41 C 288.1656794212841 41 291.044081143466 43.82060576 291.044081143466 47.3 C 291.044081143466 50.779394239999995 288.1656794212841 53.6 284.614990234375 53.6 C 281.0643010474659 53.6 278.1858993252841 50.779394239999995 278.1858993252841 47.3 Z" fill="none" stroke="#000000" stroke-miterlimit="10"/></g><g transform="translate(-174,10) scale(1,1)"><path d="M 284.614990234375 53.6 L 284.614990234375 66.4" fill="none" stroke="#000000" stroke-miterlimit="10"/></g><g transform="translate(-174,10) scale(1,1)"><path d="M 277.80771750710227 58.4 L 291.4222629616478 58.4" fill="none" stroke="#000000" stroke-miterlimit="10"/></g><g transform="translate(-174,10) scale(1,1)"><path d="M 284.614990234375 66.4 L 275.16044477982956 79" fill="none" stroke="#000000" stroke-miterlimit="10"/></g><g transform="translate(-174,10) scale(1,1)"><path d="M 284.614990234375 66.4 L 294.0695356889205 79" fill="none" stroke="#000000" stroke-miterlimit="10"/></g><g transform="translate(-174,10) scale(1,1)"><g><path fill="none" stroke="none"/><text fill="#000000" font-family="Arial" font-size="13px" font-style="normal" font-weight="bold" stroke="none" text-decoration="none" x="207.65283203125" y="99.5">Lifeline: Mobile Application</text></g></g><g transform="translate(-174,10) scale(1,1)"><path d="M 285.5 105 L 285.5 936" fill="none" stroke="#000000" stroke-dasharray="3" stroke-miterlimit="10"/></g><g transform="translate(-174,10) scale(1,1)"><rect fill="#C0C0C0" height="39" opacity="0.2" stroke="none" width="110.76806640625" x="511" y="47"/></g><g transform="translate(-174,10) scale(1,1)"><rect fill="#ffffff" height="39" stroke="none" width="110.76806640625" x="504" y="40"/></g><g transform="translate(-174,10) scale(1,1)"><path d="M 504 40 L 614.76806640625 40 L 614.76806640625 79 L 504 79 L 504 40 Z Z" fill="none" stroke="#000000" stroke-miterlimit="10"/></g><g transform="translate(-174,10) scale(1,1)"><g><path fill="none" stroke="none"/><text fill="#000000" font-family="Arial" font-size="13px" font-style="normal" font-weight="bold" stroke="none" text-decoration="none" x="515.674072265625" y="59.5">Remote Server</text></g></g><g transform="translate(-174,10) scale(1,1)"><path d="M 560.5 80 L 560.5 936" fill="none" stroke="#000000" stroke-dasharray="3" stroke-miterlimit="10"/></g><g transform="translate(-174,10) scale(1,1)"><path d="M 566 176 L 596 176 L 596 196 L 573 196" fill="none" stroke="#000000" stroke-miterlimit="10"/></g><g transform="translate(-174,10) scale(1,1)"><path d="M 583.1626748576241 191.790482243984 L 573 196 L 583.1626748576241 200.209517756016" fill="#000000" stroke="none"/></g><g transform="translate(-174,10) scale(1,1)"><path d="M 583.1626748576241 191.790482243984 L 573 196 L 583.1626748576241 200.209517756016 L 583.1626748576241 191.790482243984" fill="none" stroke="#000000" stroke-miterlimit="10"/></g><g transform="translate(-174,10) scale(1,1)"><g><path fill="none" stroke="none"/><text fill="#000000" font-family="Arial" font-size="13px" font-style="normal" font-weight="normal" stroke="none" text-decoration="none" x="599.5" y="188.5">2 : getSensorSupport(customerID, storeID)</text></g></g><g transform="translate(-174,10) scale(1,1)"><rect fill="#ffffff" height="28" stroke="none" width="13" x="560" y="196"/></g><g transform="translate(-174,10) scale(1,1)"><path d="M 560 196 L 573 196 L 573 224 L 560 224 L 560 196 Z Z" fill="none" stroke="#000000" stroke-miterlimit="10"/></g><g transform="translate(-174,10) scale(1,1)"><path d="M 553 232 L 285 232" fill="none" stroke="#000000" stroke-dasharray="3" stroke-miterlimit="10"/></g><g transform="translate(-174,10) scale(1,1)"><path d="M 295.16267485762415 227.790482243984 L 285 232 L 295.16267485762415 236.209517756016" fill="none" stroke="#000000" stroke-miterlimit="10"/></g><g transform="translate(-174,10) scale(1,1)"><g><path fill="none" stroke="none"/><text fill="#000000" font-family="Arial" font-size="13px" font-style="normal" font-weight="normal" stroke="none" text-decoration="none" x="380.5" y="248.5">3 : confirmed</text></g></g><g transform="translate(-174,10) scale(1,1)"><path d="M 566 248 L 596 248 L 596 268 L 573 268" fill="none" stroke="#000000" stroke-miterlimit="10"/></g><g transform="translate(-174,10) scale(1,1)"><path d="M 583.1626748576241 263.790482243984 L 573 268 L 583.1626748576241 272.209517756016" fill="#000000" stroke="none"/></g><g transform="translate(-174,10) scale(1,1)"><path d="M 583.1626748576241 263.790482243984 L 573 268 L 583.1626748576241 272.209517756016 L 583.1626748576241 263.790482243984" fill="none" stroke="#000000" stroke-miterlimit="10"/></g><g transform="translate(-174,10) scale(1,1)"><g><path fill="none" stroke="none"/><text fill="#000000" font-family="Arial" font-size="13px" font-style="normal" font-weight="normal" stroke="none" text-decoration="none" x="598.5" y="263.5">4 : endShoppingSession(sessionID)</text></g></g><g transform="translate(-174,10) scale(1,1)"><rect fill="#ffffff" height="28" stroke="none" width="13" x="560" y="268"/></g><g transform="translate(-174,10) scale(1,1)"><path d="M 560 268 L 573 268 L 573 296 L 560 296 L 560 268 Z Z" fill="none" stroke="#000000" stroke-miterlimit="10"/></g><g transform="translate(-174,10) scale(1,1)"><path d="M 566 320 L 952 320" fill="none" stroke="#000000" stroke-miterlimit="10"/></g><g transform="translate(-174,10) scale(1,1)"><path d="M 941.8373251423759 324.209517756016 L 952 320 L 941.8373251423758 315.790482243984" fill="#000000" stroke="none"/></g><g transform="translate(-174,10) scale(1,1)"><path d="M 941.8373251423759 324.209517756016 L 952 320 L 941.8373251423758 315.790482243984 L 941.8373251423759 324.209517756016" fill="none" stroke="#000000" stroke-miterlimit="10"/></g><g transform="translate(-174,10) scale(1,1)"><g><path fill="none" stroke="none"/><text fill="#000000" font-family="Arial" font-size="13px" font-style="normal" font-weight="normal" stroke="none" text-decoration="none" x="687.5" y="316.5">5 : readCart(customerID)</text></g></g><g transform="translate(-174,10) scale(1,1)"><rect fill="#ffffff" height="80" stroke="none" width="13" x="952" y="320"/></g><g transform="translate(-174,10) scale(1,1)"><path d="M 952 320 L 965 320 L 965 400 L 952 400 L 952 320 Z Z" fill="none" stroke="#000000" stroke-miterlimit="10"/></g><g transform="translate(-174,10) scale(1,1)"><path d="M 965 344 L 1290 344" fill="none" stroke="#000000" stroke-miterlimit="10"/></g><g transform="translate(-174,10) scale(1,1)"><path d="M 1279.837325142376 348.209517756016 L 1290 344 L 1279.837325142376 339.790482243984" fill="#000000" stroke="none"/></g><g transform="translate(-174,10) scale(1,1)"><path d="M 1279.837325142376 348.209517756016 L 1290 344 L 1279.837325142376 339.790482243984 L 1279.837325142376 348.209517756016" fill="none" stroke="#000000" stroke-miterlimit="10"/></g><g transform="translate(-174,10) scale(1,1)"><g><path fill="none" stroke="none"/><text fill="#000000" font-family="Arial" font-size="13px" font-style="normal" font-weight="normal" stroke="none" text-decoration="none" x="1037.5" y="340.5">6 : getCurrentCart(customerID)</text></g></g><g transform="translate(-174,10) scale(1,1)"><rect fill="#ffffff" height="40" stroke="none" width="13" x="1290" y="344"/></g><g transform="translate(-174,10) scale(1,1)"><path d="M 1290 344 L 1303 344 L 1303 384 L 1290 384 L 1290 344 Z Z" fill="none" stroke="#000000" stroke-miterlimit="10"/></g><g transform="translate(-174,10) scale(1,1)"><path d="M 1290 368 L 965 368" fill="none" stroke="#000000" stroke-dasharray="3" stroke-miterlimit="10"/></g><g transform="translate(-174,10) scale(1,1)"><path d="M 975.1626748576241 363.790482243984 L 965 368 L 975.1626748576241 372.209517756016" fill="none" stroke="#000000" stroke-miterlimit="10"/></g><g transform="translate(-174,10) scale(1,1)"><g><path fill="none" stroke="none"/><text fill="#000000" font-family="Arial" font-size="13px" font-style="normal" font-weight="normal" stroke="none" text-decoration="none" x="1093.6708984375" y="384.5">7 : cart info</text></g></g><g transform="translate(-174,10) scale(1,1)"><path d="M 952 384 L 566 384" fill="none" stroke="#000000" stroke-dasharray="3" stroke-miterlimit="10"/></g><g transform="translate(-174,10) scale(1,1)"><path d="M 576.1626748576241 379.790482243984 L 566 384 L 576.1626748576241 388.209517756016" fill="none" stroke="#000000" stroke-miterlimit="10"/></g><g transform="translate(-174,10) scale(1,1)"><g><path fill="none" stroke="none"/><text fill="#000000" font-family="Arial" font-size="13px" font-style="normal" font-weight="normal" stroke="none" text-decoration="none" x="725.6708984375" y="400.5">8 : cart info</text></g></g><g transform="translate(-174,10) scale(1,1)"><path d="M 566 432 L 952 432" fill="none" stroke="#000000" stroke-miterlimit="10"/></g><g transform="translate(-174,10) scale(1,1)"><path d="M 941.8373251423759 436.209517756016 L 952 432 L 941.8373251423758 427.790482243984" fill="#000000" stroke="none"/></g><g transform="translate(-174,10) scale(1,1)"><path d="M 941.8373251423759 436.209517756016 L 952 432 L 941.8373251423758 427.790482243984 L 941.8373251423759 436.209517756016" fill="none" stroke="#000000" stroke-miterlimit="10"/></g><g transform="translate(-174,10) scale(1,1)"><g><path fill="none" stroke="none"/><text fill="#000000" font-family="Arial" font-size="13px" font-style="normal" font-weight="normal" stroke="none" text-decoration="none" x="682.5" y="427.5">9 : readPaymentInfo(void)</text></g></g><g transform="translate(-174,10) scale(1,1)"><rect fill="#ffffff" height="107" stroke="none" width="13" x="952" y="432"/></g><g transform="translate(-174,10) scale(1,1)"><path d="M 952 432 L 965 432 L 965 539 L 952 539 L 952 432 Z Z" fill="none" stroke="#000000" stroke-miterlimit="10"/></g><g transform="translate(-174,10) scale(1,1)"><path d="M 965 464 L 1290 464" fill="none" stroke="#000000" stroke-miterlimit="10"/></g><g transform="translate(-174,10) scale(1,1)"><path d="M 1279.837325142376 468.209517756016 L 1290 464 L 1279.837325142376 459.790482243984" fill="#000000" stroke="none"/></g><g transform="translate(-174,10) scale(1,1)"><path d="M 1279.837325142376 468.209517756016 L 1290 464 L 1279.837325142376 459.790482243984 L 1279.837325142376 468.209517756016" fill="none" stroke="#000000" stroke-miterlimit="10"/></g><g transform="translate(-174,10) scale(1,1)"><g><path fill="none" stroke="none"/><text fill="#000000" font-family="Arial" font-size="13px" font-style="normal" font-weight="normal" stroke="none" text-decoration="none" x="976.5" y="455.5">10 : getPaymentDetails(customerID, defaultMethod)</text></g></g><g transform="translate(-174,10) scale(1,1)"><rect fill="#ffffff" height="32" stroke="none" width="13" x="1290" y="464"/></g><g transform="translate(-174,10) scale(1,1)"><path d="M 1290 464 L 1303 464 L 1303 496 L 1290 496 L 1290 464 Z Z" fill="none" stroke="#000000" stroke-miterlimit="10"/></g><g transform="translate(-174,10) scale(1,1)"><path d="M 1290 488 L 965 488" fill="none" stroke="#000000" stroke-dasharray="3" stroke-miterlimit="10"/></g><g transform="translate(-174,10) scale(1,1)"><path d="M 975.1626748576241 483.790482243984 L 965 488 L 975.1626748576241 492.209517756016" fill="none" stroke="#000000" stroke-miterlimit="10"/></g><g transform="translate(-174,10) scale(1,1)"><g><path fill="none" stroke="none"/><text fill="#000000" font-family="Arial" font-size="13px" font-style="normal" font-weight="normal" stroke="none" text-decoration="none" x="1053.5" y="504.5">11 : payment method info</text></g></g><g transform="translate(-174,10) scale(1,1)"><path d="M 952 515 L 566 515" fill="none" stroke="#000000" stroke-dasharray="3" stroke-miterlimit="10"/></g><g transform="translate(-174,10) scale(1,1)"><path d="M 576.1626748576241 510.790482243984 L 566 515 L 576.1626748576241 519.209517756016" fill="none" stroke="#000000" stroke-miterlimit="10"/></g><g transform="translate(-174,10) scale(1,1)"><g><path fill="none" stroke="none"/><text fill="#000000" font-family="Arial" font-size="13px" font-style="normal" font-weight="normal" stroke="none" text-decoration="none" x="684.5" y="531.5">12 : payment method info</text></g></g><g transform="translate(-174,10) scale(1,1)"><path d="M 566 575 L 952 575" fill="none" stroke="#000000" stroke-miterlimit="10"/></g><g transform="translate(-174,10) scale(1,1)"><path d="M 941.8373251423759 579.209517756016 L 952 575 L 941.8373251423758 570.790482243984" fill="#000000" stroke="none"/></g><g transform="translate(-174,10) scale(1,1)"><path d="M 941.8373251423759 579.209517756016 L 952 575 L 941.8373251423758 570.790482243984 L 941.8373251423759 579.209517756016" fill="none" stroke="#000000" stroke-miterlimit="10"/></g><g transform="translate(-174,10) scale(1,1)"><g><path fill="none" stroke="none"/><text fill="#000000" font-family="Arial" font-size="13px" font-style="normal" font-weight="normal" stroke="none" text-decoration="none" x="579.5" y="571.5">13 : sendPaymentRequest(bankID, totalCost, paymentDetails)</text></g></g><g transform="translate(-174,10) scale(1,1)"><rect fill="#ffffff" height="201" stroke="none" width="13" x="952" y="575"/></g><g transform="translate(-174,10) scale(1,1)"><path d="M 952 575 L 965 575 L 965 776 L 952 776 L 952 575 Z Z" fill="none" stroke="#000000" stroke-miterlimit="10"/></g><g transform="translate(-174,10) scale(1,1)"><path d="M 965 592 L 995 592 L 995 612 L 972 612" fill="none" stroke="#000000" stroke-miterlimit="10"/></g><g transform="translate(-174,10) scale(1,1)"><path d="M 982.1626748576241 607.790482243984 L 972 612 L 982.1626748576241 616.209517756016" fill="#000000" stroke="none"/></g><g transform="translate(-174,10) scale(1,1)"><path d="M 982.1626748576241 607.790482243984 L 972 612 L 982.1626748576241 616.209517756016 L 982.1626748576241 607.790482243984" fill="none" stroke="#000000" stroke-miterlimit="10"/></g><g transform="translate(-174,10) scale(1,1)"><g><path fill="none" stroke="none"/><text fill="#000000" font-family="Arial" font-size="13px" font-style="normal" font-weight="normal" stroke="none" text-decoration="none" x="999.5" y="607.5">14 : validatePaymentCompletion</text></g></g><g transform="translate(-174,10) scale(1,1)"><rect fill="#ffffff" height="28" stroke="none" width="13" x="959" y="612"/></g><g transform="translate(-174,10) scale(1,1)"><path d="M 959 612 L 972 612 L 972 640 L 959 640 L 959 612 Z Z" fill="none" stroke="#000000" stroke-miterlimit="10"/></g><g transform="translate(-174,10) scale(1,1)"><path d="M 285 164 L 553 164" fill="none" stroke="#000000" stroke-miterlimit="10"/></g><g transform="translate(-174,10) scale(1,1)"><path d="M 542.8373251423759 168.209517756016 L 553 164 L 542.8373251423758 159.790482243984" fill="#000000" stroke="none"/></g><g transform="translate(-174,10) scale(1,1)"><path d="M 542.8373251423759 168.209517756016 L 553 164 L 542.8373251423758 159.790482243984 L 542.8373251423759 168.209517756016" fill="none" stroke="#000000" stroke-miterlimit="10"/></g><g transform="translate(-174,10) scale(1,1)"><g><path fill="none" stroke="none"/><text fill="#000000" font-family="Arial" font-size="13px" font-style="normal" font-weight="normal" stroke="none" text-decoration="none" x="294.5" y="159.5">1 : userLeavingStore(customerID, storeID)</text></g></g><g transform="translate(-174,10) scale(1,1)"><rect fill="#ffffff" height="724" stroke="none" width="13" x="553" y="164"/></g><g transform="translate(-174,10) scale(1,1)"><path d="M 553 164 L 566 164 L 566 888 L 553 888 L 553 164 Z Z" fill="none" stroke="#000000" stroke-miterlimit="10"/></g><g transform="translate(-174,10) scale(1,1)"><path d="M 952 664 L 566 664" fill="none" stroke="#000000" stroke-dasharray="3" stroke-miterlimit="10"/></g><g transform="translate(-174,10) scale(1,1)"><path d="M 576.1626748576241 659.790482243984 L 566 664 L 576.1626748576241 668.209517756016" fill="none" stroke="#000000" stroke-miterlimit="10"/></g><g transform="translate(-174,10) scale(1,1)"><g><path fill="none" stroke="none"/><text fill="#000000" font-family="Arial" font-size="13px" font-style="normal" font-weight="normal" stroke="none" text-decoration="none" x="719.5" y="680.5">15 : validated</text></g></g><g transform="translate(-174,10) scale(1,1)"><path d="M 952 768 L 566 768" fill="none" stroke="#000000" stroke-dasharray="3" stroke-miterlimit="10"/></g><g transform="translate(-174,10) scale(1,1)"><path d="M 576.1626748576241 763.790482243984 L 566 768 L 576.1626748576241 772.209517756016" fill="none" stroke="#000000" stroke-miterlimit="10"/></g><g transform="translate(-174,10) scale(1,1)"><g><path fill="none" stroke="none"/><text fill="#000000" font-family="Arial" font-size="13px" font-style="normal" font-weight="normal" stroke="none" text-decoration="none" x="698.5" y="784.5">16 : validation failure</text></g></g><g transform="translate(-174,10) scale(1,1)"><path d="M 566 824 L 952 824" fill="none" stroke="#000000" stroke-miterlimit="10"/></g><g transform="translate(-174,10) scale(1,1)"><path d="M 941.8373251423759 828.209517756016 L 952 824 L 941.8373251423758 819.790482243984" fill="#000000" stroke="none"/></g><g transform="translate(-174,10) scale(1,1)"><path d="M 941.8373251423759 828.209517756016 L 952 824 L 941.8373251423758 819.790482243984 L 941.8373251423759 828.209517756016" fill="none" stroke="#000000" stroke-miterlimit="10"/></g><g transform="translate(-174,10) scale(1,1)"><g><path fill="none" stroke="none"/><text fill="#000000" font-family="Arial" font-size="13px" font-style="normal" font-weight="normal" stroke="none" text-decoration="none" x="675.5" y="818.5">17 : raisePaymentError(void)</text></g></g><g transform="translate(-174,10) scale(1,1)"><rect fill="#ffffff" height="28" stroke="none" width="13" x="952" y="824"/></g><g transform="translate(-174,10) scale(1,1)"><path d="M 952 824 L 965 824 L 965 852 L 952 852 L 952 824 Z Z" fill="none" stroke="#000000" stroke-miterlimit="10"/></g><g transform="translate(-174,10) scale(1,1)"><path d="M 240 648 L 1328 648 L 1328 864 L 240 864 L 240 648" fill="none" stroke="#000000" stroke-miterlimit="10"/></g><g transform="translate(-174,10) scale(1,1)"><path d="M 240 648 L 240 670 L 276.9599609375 670 L 287.9599609375 659 L 287.9599609375 648 L 240 648" fill="#ffffff" stroke="none"/></g><g transform="translate(-174,10) scale(1,1)"><path d="M 240 648 L 240 670 L 276.9599609375 670 L 287.9599609375 659 L 287.9599609375 648 L 240 648 L 240 648" fill="none" stroke="#000000" stroke-miterlimit="10"/></g><g transform="translate(-174,10) scale(1,1)"><g><path fill="none" stroke="none"/><text fill="#000000" font-family="Arial" font-size="13px" font-style="normal" font-weight="normal" stroke="none" text-decoration="none" x="264.72998046875" y="665.5">1</text></g></g><g transform="translate(-174,10) scale(1,1)"><g><path fill="none" stroke="none"/><text fill="#000000" font-family="Arial" font-size="13px" font-style="normal" font-weight="bold" stroke="none" text-decoration="none" x="245" y="665.5">alt</text></g></g><g transform="translate(-174,10) scale(1,1)"><path d="M 240 737 L 1328 737" fill="none" stroke="#000000" stroke-dasharray="10,3" stroke-miterlimit="10"/></g></g></svg>